<svg id="Group_13" data-name="Group 13" xmlns="http://www.w3.org/2000/svg" xmlns:xlink="http://www.w3.org/1999/xlink" width="89.814" height="89.822" viewBox="0 0 89.814 89.822">
  <defs>
    <style>
      .cls-1 {
        fill: none;
      }

      .cls-2 {
        clip-path: url(#clip-path);
      }

      .cls-3 {
        fill: #393185;
      }
    </style>
    <clipPath id="clip-path">
      <path id="Clip_2" data-name="Clip 2" class="cls-1" d="M0,0H89.814V89.822H0Z"/>
    </clipPath>
  </defs>
  <path id="Clip_2-2" data-name="Clip 2" class="cls-1" d="M0,0H89.814V89.822H0Z"/>
  <g id="Group_13-2" data-name="Group 13" class="cls-2">
    <path id="Fill_1" data-name="Fill 1" class="cls-3" d="M73.353,89.822a4.5,4.5,0,0,1-4.392-5.452,1.494,1.494,0,0,1-.1-.544V77.837a1.5,1.5,0,0,1,1.5-1.5h4.49V38.919H67.361V78.428a19.2,19.2,0,0,1-3.245,10.719,1.493,1.493,0,0,1-1.245.666h-46.4a1.5,1.5,0,0,1-1.246-2.327,16.214,16.214,0,0,0,2.742-9.058v-42.5a6,6,0,0,1,5.988-5.988h47.9V26.944H16.466v5.987H13.473V25.447a1.5,1.5,0,0,1,1.5-1.5H73.348a1.5,1.5,0,0,1,1.5,1.5V35.925H86.82V17.962H2.994V35.925H14.97v43.41H2.994v2.993H13.473v2.993H8.982A4.491,4.491,0,1,1,.1,84.37a1.474,1.474,0,0,1-.1-.544V77.837a1.5,1.5,0,0,1,1.5-1.5H5.989V38.919H1.5a1.5,1.5,0,0,1-1.5-1.5V16.465a1.5,1.5,0,0,1,1.5-1.5H5.989V2.993H2.994v8.982H0V1.5A1.5,1.5,0,0,1,1.5,0H37.423a1.5,1.5,0,0,1,1.5,1.5V14.969h49.4a1.5,1.5,0,0,1,1.5,1.5V37.422a1.5,1.5,0,0,1-1.5,1.5H83.826V76.341h4.491a1.5,1.5,0,0,1,1.5,1.5v5.988a1.473,1.473,0,0,1-.1.544,4.493,4.493,0,0,1-4.386,5.451h-.008a4.491,4.491,0,0,1-4.483-4.5H77.839a4.554,4.554,0,0,1-.1.968,4.491,4.491,0,0,1-4.381,3.531Zm10.473-4.5a1.5,1.5,0,1,0,2.994,0H83.826Zm-11.975,0a1.5,1.5,0,1,0,2.993,0H71.852ZM26.783,69.638h0l-5.826,5.826v2.964a19.384,19.384,0,0,1-1.915,8.392h43a16.281,16.281,0,0,0,2.32-8.392v-4.46l-4.682-4.682L56.216,71.6a1.5,1.5,0,0,1-1.889-.187L49.4,66.482l-6.426,6.427a1.5,1.5,0,0,1-1.889.187l-3.61-2.406-5.14,3.854a1.5,1.5,0,0,1-2.1-.3l-3.455-4.607ZM2.994,85.322a1.5,1.5,0,1,0,2.994,0H2.994Zm68.857-5.987v2.993H86.82V79.335Zm5.988-40.416V76.341h2.993V38.919Zm-68.857,0V76.341h2.994V38.919ZM26.944,65.863a1.484,1.484,0,0,1,1.2.6l3.593,4.79,4.79-3.592a1.5,1.5,0,0,1,1.729-.049l3.469,2.314,6.617-6.617a1.5,1.5,0,0,1,2.117,0l5.12,5.119,3.469-2.313a1.5,1.5,0,0,1,1.889.187l3.433,3.432V59L61.373,56,59.438,57.94a1.5,1.5,0,0,1-2.117,0l-4.929-4.929L48.96,56.443a1.5,1.5,0,0,1-2.118,0l-6.153-6.153L34.2,60.668l-.024.038a1.5,1.5,0,0,1-2.075.415l-3.47-2.313-7.675,7.675V71.23L25.887,66.3a1.372,1.372,0,0,1,.16-.139A1.483,1.483,0,0,1,26.944,65.863ZM23.951,32.931a3,3,0,0,0-2.993,2.994V62.248l6.426-6.425a1.5,1.5,0,0,1,1.889-.187l3.208,2.138,6.667-10.668a1.5,1.5,0,0,1,.211-.265,1.5,1.5,0,0,1,2.118,0L47.9,53.267l3.432-3.432a1.5,1.5,0,0,1,2.117,0l4.929,4.929,1.935-1.936a1.5,1.5,0,0,1,2.117,0l1.936,1.935V35.925a5.96,5.96,0,0,1,.8-2.994Zm46.4,0a3,3,0,0,0-2.994,2.994h4.491V32.931ZM26.945,2.993V14.969h8.981V2.993Zm-5.988,0V14.969h2.993V2.993Zm-5.988,0V14.969h2.993V2.993Zm-5.988,0V14.969h2.994V2.993Z" transform="translate(0)"/>
    <path id="Fill_3" data-name="Fill 3" class="cls-3" d="M0,2.994H2.994V0H0Z" transform="translate(77.839 29.938)"/>
    <path id="Fill_4" data-name="Fill 4" class="cls-3" d="M0,2.994H2.994V0H0Z" transform="translate(77.839 23.95)"/>
    <path id="Fill_5" data-name="Fill 5" class="cls-3" d="M0,2.994H5.988V0H0Z" transform="translate(23.951 80.832)"/>
    <path id="Fill_6" data-name="Fill 6" class="cls-3" d="M0,2.994H2.994V0H0Z" transform="translate(32.932 80.832)"/>
    <path id="Fill_7" data-name="Fill 7" class="cls-3" d="M0,2.994H8.981V0H0Z" transform="translate(50.895 80.832)"/>
    <path id="Fill_8" data-name="Fill 8" class="cls-3" d="M0,2.994H8.981V0H0Z" transform="translate(23.951 37.422)"/>
    <path id="Fill_9" data-name="Fill 9" class="cls-3" d="M0,2.994H8.981V0H0Z" transform="translate(23.951 43.41)"/>
    <path id="Fill_10" data-name="Fill 10" class="cls-3" d="M0,2.994H5.988V0H0Z" transform="translate(23.951 49.397)"/>
    <path id="Fill_11" data-name="Fill 11" class="cls-3" d="M0,2.994H7.484V0H0Z" transform="translate(53.889 37.422)"/>
    <path id="Fill_12" data-name="Fill 12" class="cls-3" d="M0,2.994H2.994V0H0Z" transform="translate(58.379 43.41)"/>
  </g>
</svg>
