<svg id="Group_9" data-name="Group 9" xmlns="http://www.w3.org/2000/svg" xmlns:xlink="http://www.w3.org/1999/xlink" width="90" height="90" viewBox="0 0 90 90">
  <defs>
    <style>
      .cls-1 {
        fill: none;
      }

      .cls-2 {
        clip-path: url(#clip-path);
      }

      .cls-3 {
        fill: #393185;
      }

      .cls-4 {
        clip-path: url(#clip-path-2);
      }
    </style>
    <clipPath id="clip-path">
      <path id="Clip_2" data-name="Clip 2" class="cls-1" d="M0,0H90V90H0Z" transform="translate(0 0)"/>
    </clipPath>
    <clipPath id="clip-path-2">
      <path id="Clip_5" data-name="Clip 5" class="cls-1" d="M0,90H90V0H0Z"/>
    </clipPath>
  </defs>
  <g id="Group_3" data-name="Group 3">
    <path id="Clip_2-2" data-name="Clip 2" class="cls-1" d="M0,0H90V90H0Z" transform="translate(0 0)"/>
    <g id="Group_3-2" data-name="Group 3" class="cls-2">
      <path id="Fill_1" data-name="Fill 1" class="cls-3" d="M56.613,90H18.871a1.453,1.453,0,0,1-1.452-1.452v-2.9a7.266,7.266,0,0,1,7.258-7.258h2.9v-8.71H7.259A7.266,7.266,0,0,1,0,62.419V18.871a7.267,7.267,0,0,1,7.259-7.259H20.323V7.259A7.266,7.266,0,0,1,27.58,0H82.742A7.267,7.267,0,0,1,90,7.259V45a7.267,7.267,0,0,1-7.258,7.258H75.484V62.419a7.266,7.266,0,0,1-7.258,7.258H47.9v8.71h2.9a7.266,7.266,0,0,1,7.258,7.258v2.9A1.453,1.453,0,0,1,56.613,90ZM24.677,81.291a4.359,4.359,0,0,0-4.354,4.354V87.1H55.161V85.645a4.359,4.359,0,0,0-4.354-4.354Zm5.807-11.614v8.71H45v-8.71ZM2.9,58.064v4.355a4.36,4.36,0,0,0,4.355,4.355H68.225a4.36,4.36,0,0,0,4.355-4.355V58.064ZM7.259,14.516A4.36,4.36,0,0,0,2.9,18.871v36.29H72.581v-2.9h-45A7.266,7.266,0,0,1,20.323,45V14.516Zm15.967-2.9V45a4.36,4.36,0,0,0,4.355,4.355H82.742A4.36,4.36,0,0,0,87.1,45V11.613ZM27.58,2.9a4.36,4.36,0,0,0-4.355,4.355V8.709H87.1V7.259A4.36,4.36,0,0,0,82.742,2.9Z" transform="translate(0 0)"/>
    </g>
  </g>
  <path id="Clip_5-2" data-name="Clip 5" class="cls-1" d="M0,90H90V0H0Z"/>
  <g id="Mask_Group_13" data-name="Mask Group 13" class="cls-4">
    <path id="Fill_4" data-name="Fill 4" class="cls-3" d="M0,3.273H3.273V0H0Z" transform="translate(66.273 60.545)"/>
    <path id="Fill_6" data-name="Fill 6" class="cls-3" d="M0,3.273H3.273V0H0Z" transform="translate(60.545 60.545)"/>
    <path id="Fill_7" data-name="Fill 7" class="cls-3" d="M0,3.273H3.273V0H0Z" transform="translate(54.818 60.545)"/>
    <path id="Fill_8" data-name="Fill 8" class="cls-3" d="M56.639,31.91H1.453A1.453,1.453,0,0,1,0,30.459V1.451A1.453,1.453,0,0,1,1.453,0H56.639A1.453,1.453,0,0,1,58.09,1.451V30.459A1.453,1.453,0,0,1,56.639,31.91ZM45.093,5.79a1.449,1.449,0,0,1,1.379,1l2.905,8.7a1.739,1.739,0,0,1,0,.464V29.008h5.809V2.9H2.9V29.008H8.714V7.252A1.453,1.453,0,0,1,10.165,5.8H21.785a1.453,1.453,0,0,1,1.452,1.451V29.008h4.357V18.667a5.183,5.183,0,0,1-1.453-3.612,4.641,4.641,0,0,1,2.6-4.191.567.567,0,0,0,.305-.493V7.252a1.482,1.482,0,0,1,2.512-.986l4.357,4.352a6.225,6.225,0,0,1,1.845,4.438,5.183,5.183,0,0,1-1.453,3.612V29.008h4.357V15.954a1.71,1.71,0,0,1,.145-.464l2.9-8.7a1.456,1.456,0,0,1,1.38-1ZM43.568,17.405v11.6h2.9v-11.6ZM30.5,20.2v8.8H33.4V20.2a6.219,6.219,0,0,1-.9.1H31.4A6.215,6.215,0,0,1,30.5,20.2Zm-18.879,5.9v2.9h8.714V8.7H11.618v2.9h2.9v2.9h-2.9v2.9h2.9v2.9h-2.9v2.9h5.81v2.9ZM31.95,10.733a3.451,3.451,0,0,1-1.917,2.726,1.78,1.78,0,0,0-.987,1.6,2.32,2.32,0,0,0,1.292,2.1,2.486,2.486,0,0,0,1.06.247h1.1a2.486,2.486,0,0,0,1.06-.247,2.32,2.32,0,0,0,1.292-2.1,3.385,3.385,0,0,0-.973-2.393Zm13.071,1.1L44.134,14.5h1.772Z" transform="translate(26.182 14.727)"/>
  </g>
</svg>
