<svg xmlns="http://www.w3.org/2000/svg" xmlns:xlink="http://www.w3.org/1999/xlink" width="108.999" height="77.662" viewBox="0 0 108.999 77.662">
  <defs>
    <style>
      .cls-1 {
        fill: none;
      }

      .cls-2 {
        clip-path: url(#clip-path);
      }

      .cls-3 {
        fill: #393185;
      }
    </style>
    <clipPath id="clip-path">
      <path id="Clip_2" data-name="Clip 2" class="cls-1" d="M0,0H109V77.662H0Z" transform="translate(0)"/>
    </clipPath>
  </defs>
  <g id="Group_3" data-name="Group 3" transform="translate(0)">
    <path id="Clip_2-2" data-name="Clip 2" class="cls-1" d="M0,0H109V77.662H0Z" transform="translate(0)"/>
    <g id="Group_3-2" data-name="Group 3" class="cls-2">
      <path id="Fill_1" data-name="Fill 1" class="cls-3" d="M43.237,77.663a6.008,6.008,0,0,1-4.261-1.753,5.909,5.909,0,0,1-1.759-4.362l-.14,0a6.011,6.011,0,0,1-6.024-5.985l0-.191-.265.006a6.011,6.011,0,0,1-6.022-5.987l.005-.3-.139,0a6.013,6.013,0,0,1-6.025-5.989A5.944,5.944,0,0,1,19.43,50.1a6.035,6.035,0,0,1,2.153-2.144,39.655,39.655,0,0,1-2.006-7.357,3.809,3.809,0,0,0-1.445-1.932c-.2-.175-.382-.339-.554-.51l-3.386-3.46-1.167,1.175a1.682,1.682,0,0,1-2.367,0L.489,25.767a1.659,1.659,0,0,1,0-2.352L23.575.489a1.681,1.681,0,0,1,2.37,0l10.166,10.1a1.64,1.64,0,0,1,.49,1.174,1.663,1.663,0,0,1-.49,1.175l-.684.683,4.462,4.429a5.123,5.123,0,0,0,3.64,1.491,5.552,5.552,0,0,0,1.89-.335,11.37,11.37,0,0,1,6.557-.347,14.541,14.541,0,0,1,12.9-.477,5.276,5.276,0,0,0,5.843-1.018l3.371-3.229-1.157-1.149a1.652,1.652,0,0,1,0-2.353L83.1.532a1.687,1.687,0,0,1,2.37,0L108.508,23.4a1.656,1.656,0,0,1,0,2.353l-10.166,10.1a1.687,1.687,0,0,1-2.37,0l-1.466-1.468L88.469,40.26a4.511,4.511,0,0,0-1.279,2.381c-.9,4.982-4.3,8.338-7.893,11.891l-.679.672-1.578,1.57a5.256,5.256,0,0,1,.553,2.414,5.606,5.606,0,0,1-4.5,5.478,8.258,8.258,0,0,1,.435,1.882A4.625,4.625,0,0,1,71.9,70.233a5.7,5.7,0,0,1-3.982,1.636,6.988,6.988,0,0,1-3.6-1.356l-.076.206a5.019,5.019,0,0,1-1.045,1.929,5.66,5.66,0,0,1-7.96,0l-.35-.3a5.527,5.527,0,0,1-1.273,1.939,5.606,5.606,0,0,1-3.98,1.641,5.666,5.666,0,0,1-1.856-.316l-.274.3A6.012,6.012,0,0,1,43.237,77.663Zm0-8.646a2.67,2.67,0,0,0-1.894.778,2.649,2.649,0,0,0,0,3.76,2.69,2.69,0,0,0,3.787,0,2.649,2.649,0,0,0,0-3.76A2.667,2.667,0,0,0,43.237,69.017Zm0-3.328a6,6,0,0,1,5.96,6.873l.43.041a2.283,2.283,0,0,0,1.614-.663,2.259,2.259,0,0,0,.669-1.6,2.22,2.22,0,0,0-.668-1.6l-.008-.011L41.4,58.919a1.654,1.654,0,0,1,0-2.352,1.683,1.683,0,0,1,2.368,0L57.6,70.3a2.293,2.293,0,0,0,3.224,0,2.255,2.255,0,0,0,.023-3.18L45.177,51.546a1.654,1.654,0,0,1,0-2.352,1.685,1.685,0,0,1,2.369,0l15.446,15.4.016.014.05.05L66.3,67.882a2.3,2.3,0,0,0,3.227,0,2.26,2.26,0,0,0,0-3.2L53.4,48.654a1.652,1.652,0,0,1,0-2.35,1.682,1.682,0,0,1,2.368,0L70.35,60.786a2.287,2.287,0,0,0,3.224,0,2.252,2.252,0,0,0,0-3.2L53.94,38.083l-.048-.045-.118-.119-1.409-1.4-6.655,6.61a6.757,6.757,0,0,1-9.5,0,6.637,6.637,0,0,1,0-9.434L48.026,21.957a8.215,8.215,0,0,0-1.462.372,8.774,8.774,0,0,1-3,.526A8.616,8.616,0,0,1,37.521,20.4L33.059,15.97,16.538,32.329l3.52,3.485c1.227,1.218,2.618,2.6,2.935,4.279a36.373,36.373,0,0,0,1.884,7.04,6.018,6.018,0,0,1,4.1,1.826,5.927,5.927,0,0,1,1.688,4.15l-.01.307.138,0a6.014,6.014,0,0,1,6.031,5.984l-.005.193.26-.006a6.008,6.008,0,0,1,5.849,4.53l.079.373.006.035.055.371V64.9l.032.39v.021l.007.257,0,.09v.036l.132,0Zm-6.168-2.763a2.659,2.659,0,1,0,2.677,2.658A2.67,2.67,0,0,0,37.069,62.925Zm-6.286-6.169a2.657,2.657,0,1,0,2.678,2.657A2.669,2.669,0,0,0,30.784,56.757Zm-6.156-6.285A2.657,2.657,0,1,0,27.3,53.129,2.669,2.669,0,0,0,24.628,50.472Zm39.02-7.452L74.242,53.543l.48.482.173.173,1.356-1.345c.4-.4.8-.789,1.194-1.17,2.939-2.859,5.713-5.558,6.451-9.629a7.787,7.787,0,0,1,2.2-4.146l6.037-5.876L76.453,16.485l-3.37,3.229a8.658,8.658,0,0,1-9.595,1.7,11.227,11.227,0,0,0-4.589-.983,11.1,11.1,0,0,0-7.843,3.226L38.58,36.046a3.325,3.325,0,0,0,0,4.729,3.385,3.385,0,0,0,4.76,0l7.837-7.78,0,0,3.9-3.865a1.683,1.683,0,0,1,2.366,0,1.651,1.651,0,0,1,0,2.352l-2.718,2.691,1.41,1.4.053.05.088.088c3.113,2.757,5.479,3.934,7.911,3.934a10.882,10.882,0,0,0,4.127-.939,1.678,1.678,0,0,1,2.183.91,1.638,1.638,0,0,1,0,1.266,1.66,1.66,0,0,1-.912.9A22.366,22.366,0,0,1,64.7,42.95c-.063,0-.152.013-.252.023-.234.022-.524.05-.711.05C63.7,43.023,63.672,43.022,63.647,43.02ZM24.76,4.015,4.043,24.591l7.8,7.747L32.559,11.762Zm59.52.046-7.8,7.747L97.157,32.323l7.8-7.746Z" transform="translate(0 0)"/>
    </g>
  </g>
</svg>
