<?xml version="1.0" standalone="no"?>
<!DOCTYPE svg PUBLIC "-//W3C//DTD SVG 1.1//EN" "http://www.w3.org/Graphics/SVG/1.1/DTD/svg11.dtd" >
<svg xmlns="http://www.w3.org/2000/svg">
<metadata>Generated by IcoMoon</metadata>
<defs>
<font id="icomoon" horiz-adv-x="1024">
<font-face units-per-em="1024" ascent="960" descent="-64" />
<missing-glyph horiz-adv-x="1024" />
<glyph unicode="&#x20;" horiz-adv-x="512" d="" />
<glyph unicode="&#xe900;" glyph-name="caret-right" horiz-adv-x="904" d="M877.929 501.79l-803.117 451.765c-15.601 8.734-34.575 8.553-49.935-0.361-15.42-9.035-24.877-25.54-24.877-43.369v-903.529c0-17.89 9.457-34.334 24.877-43.369 7.831-4.518 16.565-6.867 25.299-6.867 8.433 0 16.986 2.108 24.636 6.445l803.117 451.765c15.782 8.915 25.6 25.6 25.6 43.791 0 18.131-9.818 34.816-25.6 43.731z" />
<glyph unicode="&#xe901;" glyph-name="cart" horiz-adv-x="1062" d="M275.494 63.735c0 33.602 27.307 60.833 61.061 60.833 33.678 0 60.985-27.231 60.985-60.833 0-33.564-27.307-60.795-61.023-60.795s-61.023 27.231-61.023 60.795zM445.402 63.735c0 60.492-49.19 109.492-109.871 109.492s-109.833-49-109.833-109.492c0-60.454 49.19-109.454 109.833-109.454 60.681 0 109.871 49 109.871 109.454zM738.949 63.735c0 33.602 27.307 60.833 61.061 60.833 33.678 0 61.023-27.231 61.023-60.833 0-33.564-27.307-60.795-61.061-60.795-33.716 0-61.023 27.231-61.023 60.795zM908.857 63.735c0 60.492-49.19 109.492-109.833 109.492-60.681 0-109.871-49-109.871-109.492 0-60.454 49.19-109.454 109.871-109.454s109.833 49 109.833 109.454zM927.554 507.089c-11.833-41.984-50.252-71.035-94.018-71.035h-556.222l-53.172 310.613h770.92l-67.508-239.578zM1046.642 785.73c-4.551 6.068-11.757 9.595-19.38 9.595h-811.463l-12.212 71.528c-7.964 46.763-48.659 80.972-96.256 80.972h-82.906c-13.502 0-24.424-10.847-24.424-24.311 0-13.426 10.923-24.311 24.424-24.311h82.868c23.78 0 44.108-17.143 48.090-40.505l85.447-500.243c11.909-70.201 72.932-121.628 144.384-121.628h499.257c13.464 0 24.386 10.885 24.386 24.311s-10.923 24.348-24.386 24.348h-499.143c-47.483 0-88.064 34.020-96.218 80.631l-3.527 20.783h547.916c65.65 0.038 123.259 43.615 141.009 106.572l76.155 270.981c2.086 7.32 0.569 15.17-4.020 21.239z" />
<glyph unicode="&#xe902;" glyph-name="facebook" d="M705.536 699.904h-70.656c-55.398 0-66.082-26.317-66.082-64.956v-85.163h132.096l-0.068-133.359h-132.028v-342.289h-137.762v342.255h-115.166v133.393h115.166v98.372c0 114.176 69.734 176.333 171.554 176.333l102.946-0.171v-124.382zM510.703 960c-282.078 0-510.703-228.693-510.703-510.703s228.625-510.669 510.703-510.669c282.044 0 510.703 228.625 510.703 510.669s-228.659 510.703-510.703 510.703z" />
<glyph unicode="&#xe903;" glyph-name="graphic" horiz-adv-x="1327" d="M167.959 876.381c4.073 18.781 21.201 32.419 40.704 32.419 2.863 0 5.725-0.303 8.588-0.931l698.717-147.596h198.26l-888.32 187.671c-5.772 1.21-11.543 1.815-17.245 1.815-38.26 0-72.913-26.461-81.222-64.768l-27.136-124.719h42.403l25.251 116.131zM1285.097 22.993c0-22.575-18.618-40.96-41.472-40.96h-1160.704c-22.877 0-41.472 18.385-41.472 40.96v614.4c0 22.575 18.618 40.96 41.472 40.96h1160.704c22.877 0 41.472-18.385 41.472-40.96v-614.4zM1243.625 719.313h-1160.704c-45.615 0-82.921-36.864-82.921-81.92v-614.4c0-45.056 37.306-81.92 82.921-81.92h1160.704c45.615 0 82.921 36.864 82.921 81.92v614.4c0 45.056-37.306 81.92-82.921 81.92zM1150.371 227.793c11.427 0 20.713-9.169 20.713-20.48s-9.286-20.48-20.713-20.48h-373.108c-11.427 0-20.713 9.169-20.713 20.48s9.286 20.48 20.713 20.48h373.108zM1150.371 145.873c11.427 0 20.713-9.169 20.713-20.48s-9.286-20.48-20.713-20.48h-373.108c-11.427 0-20.713 9.169-20.713 20.48s9.286 20.48 20.713 20.48h373.108zM1150.371 63.953c11.427 0 20.713-9.169 20.713-20.48s-9.286-20.48-20.713-20.48h-373.108c-11.427 0-20.713 9.169-20.713 20.48s9.286 20.48 20.713 20.48h373.108zM1150.371 637.393c11.427 0 20.713-9.169 20.713-20.48 0-11.287-9.286-20.48-20.713-20.48h-290.211c-11.404 0-20.713 9.193-20.713 20.48 0 11.311 9.309 20.48 20.713 20.48h290.211zM1150.371 555.473c11.427 0 20.713-9.169 20.713-20.48 0-11.287-9.286-20.48-20.713-20.48h-124.369c-11.45 0-20.713 9.193-20.713 20.48 0 11.311 9.263 20.48 20.713 20.48h124.369zM455.401 349.231l-66.025 66.956c-4.352 4.399-10.38 6.633-16.663 6.097-6.214-0.535-11.846-3.817-15.36-8.913l-59.415-86.575-50.409 48.756c-4.166 4.026-9.868 6.167-15.663 5.818-5.841-0.326-11.241-3.072-14.941-7.564l-44.8-54.598c-4.073 13.219-6.284 27.206-6.284 41.728 0 79.034 65.071 143.36 145.082 143.36 79.988 0 145.082-64.326 145.082-143.36 0-3.956-0.303-7.843-0.605-11.706zM310.924 217.553c-49.059 0-92.393 24.204-118.691 61.137l42.589 51.852 39.471-38.214-1.28-1.839c-6.423-9.356-3.956-22.109 5.539-28.439 3.561-2.397 7.61-3.537 11.613-3.537 6.633 0 13.172 3.165 17.175 8.983l70.097 102.121 63.721-64.628c0.721-0.745 1.559-1.35 2.374-1.955-22.575-50.269-73.472-85.481-132.608-85.481zM310.924 545.233c-103.052 0-186.554-82.502-186.554-184.32 0-101.795 83.503-184.32 186.554-184.32 103.005 0 186.531 82.525 186.531 184.32 0 101.818-83.526 184.32-186.531 184.32zM450.816 135.633c11.45 0 20.713-9.169 20.713-20.48s-9.263-20.48-20.713-20.48h-279.831c-11.427 0-20.713 9.169-20.713 20.48s9.286 20.48 20.736 20.48h279.808zM280.669 445.393c11.45 0 20.736-9.169 20.736-20.48 0-11.287-9.286-20.48-20.713-20.48-11.45 0-20.713 9.193-20.713 20.48 0 11.311 9.263 20.48 20.713 20.48z" />
<glyph unicode="&#xe904;" glyph-name="instagram" d="M673.929 573.508c-20.651 0-37.444 16.759-37.444 37.444 0 20.617 16.794 37.444 37.444 37.444 20.617 0 37.478-16.828 37.478-37.444 0-20.685-16.862-37.444-37.478-37.444zM510.601 289.792c-87.211 0-158.208 70.997-158.208 158.208 0 87.245 70.997 158.242 158.208 158.242 87.279 0 158.242-70.997 158.242-158.242 0-87.211-70.997-158.208-158.242-158.208zM662.835 688.299h-304.401c-48.606 0-88.098-39.492-88.098-88.132v-304.333c0-48.606 39.492-88.166 88.098-88.166h304.401c48.572 0 88.098 39.561 88.098 88.166v304.333c0 48.64-39.526 88.132-88.098 88.132zM510.635 539.341c-50.347 0-91.375-40.96-91.375-91.341s41.028-91.375 91.341-91.375c50.381 0 91.409 40.96 91.409 91.375 0 50.347-41.028 91.341-91.409 91.341zM817.766 295.834c0-85.504-69.495-154.965-154.965-154.965h-304.367c-85.436 0-154.965 69.461-154.965 154.965v304.333c-0.034 85.436 69.495 155.034 154.931 155.034h304.401c85.436 0 154.965-69.564 154.965-154.965v-304.367zM510.635 960c-282.010 0-510.635-228.625-510.635-510.635 0-281.941 228.591-510.566 510.635-510.566 281.941 0 510.601 228.591 510.601 510.601 0 281.975-228.659 510.601-510.635 510.601z" />
<glyph unicode="&#xe905;" glyph-name="search" d="M814.137 503.637c0-94.834-36.636-184.604-103.652-251.563-67.015-67.015-156.786-103.708-251.563-103.708-94.834 0-184.604 36.693-251.62 103.708-66.958 66.958-103.652 156.729-103.652 251.563 0 94.777 36.693 184.548 103.652 251.563 67.015 67.015 156.786 103.652 251.62 103.652 94.777 0 184.548-36.636 251.563-103.652s103.652-156.786 103.652-251.563zM1003.748 29.525l-188.302 188.359c144.1 179.541 130.162 445.042-34.133 608.142-86.073 85.845-201.045 133.973-323.755 133.973-122.482 0-236.26-48.014-323.584-134.030-85.902-85.902-133.973-200.988-133.973-323.584 0-122.652 48.014-236.43 133.973-323.698 86.016-85.902 201.045-133.973 323.698-133.973 103.652 0 204.8 35.385 285.696 99.897l188.302-188.359c10.183-10.126 22.756-15.189 35.442-15.189 13.881 0 26.567 5.063 35.385 15.189 20.252 21.447 20.252 53.077 1.252 73.273z" />
<glyph unicode="&#xe906;" glyph-name="social" d="M973.638 71.559c-125.896 35.393-223.251 55.631-302.154 60.695v136.509c88.976 3.37 189.682 23.626 302.173 60.695v-257.918zM622.797-9.393c-1.676-5.046-6.703-6.703-11.748-6.703-6.703 0-13.424 5.027-15.099 11.785l-21.839 87.654h33.587l18.469-79.22c0-5.083 0-10.128-3.351-13.517zM470.035 167.629v67.435c0 10.128 6.703 16.868 16.794 16.868h16.794v-101.153h-16.794c-10.072 0-16.794 6.758-16.794 16.849zM537.19 268.781c0 10.128 6.703 16.868 16.775 16.868h67.156c6.703 0 11.748-3.351 15.118-8.434v-150.025c-3.351-6.758-8.397-10.128-15.118-10.128h-67.156c-10.054 0-16.775 6.758-16.775 16.849v134.87zM983.71 368.258c-124.221-42.133-229.972-62.371-325.651-65.759-8.397 10.128-21.821 16.868-36.938 16.868h-67.156c-21.821 0-40.271-13.498-46.992-33.718h-20.145c-28.542 0-50.362-21.932-50.362-50.586v-67.435c0-28.635 21.821-50.567 50.362-50.567h20.145c5.027-15.155 16.794-26.959 33.569-32.023l23.496-99.477c6.721-21.895 25.19-37.087 48.687-37.087 15.118 0 30.217 6.758 38.614 20.219 8.378 11.823 11.748 26.996 8.378 42.152l-18.451 75.869c6.703 3.389 13.424 6.758 18.469 13.48 82.255-3.351 186.331-25.283 327.345-67.435l20.145-5.046v348.979l-23.515-8.434zM1007.225 27.732v0zM839.345 892.565h33.569v-33.718h-33.569zM218.224 693.63l169.556-104.522-169.556-104.522v209.045zM451.565 589.107l-266.91 165.218v-330.435l266.91 165.218zM67.156 319.367h335.723v-33.718h-335.723zM67.156 251.951h335.723v-33.718h-335.723zM67.156 184.515h335.723v-33.718h-335.723zM705.052 622.825v101.153h134.293v-101.153h-134.293zM671.483 589.126h201.449v168.569h-201.449v-168.588zM705.052 420.52v101.153h134.293v-101.153h-134.293zM671.483 386.821h201.449v168.569h-201.449v-168.588zM33.569 825.149v101.153h738.621v-101.171h-738.621zM805.776 825.149v101.153h100.724v-101.171h-100.724zM33.569 386.802v404.61h570.778v-404.61h-570.778zM419.672 117.080h-386.104v236.004h587.553c5.027 0 11.729 0 16.775-1.676v440.003h268.623v-411.35c11.729 3.37 21.821 6.74 33.569 10.128v569.809h-940.088v-876.637h486.828c-26.866 0-52.056 13.48-67.156 33.699z" />
<glyph unicode="&#xe907;" glyph-name="twitter" d="M745.779 560.811c0.205-5.052 0.341-10.103 0.341-15.189 0-155.307-118.204-334.37-334.37-334.37-66.389 0-128.137 19.456-180.156 52.77 9.216-1.092 18.569-1.604 28.058-1.604 55.057 0 105.711 18.773 145.954 50.278-51.439 0.956-94.822 34.953-109.807 81.647 7.168-1.365 14.541-2.116 22.084-2.116 10.752 0 21.163 1.434 30.993 4.096-53.76 10.786-94.276 58.334-94.276 115.234v1.502c15.872-8.806 33.963-14.097 53.248-14.677-31.539 21.026-52.292 57.003-52.292 97.792 0 21.504 5.803 41.711 15.906 59.051 57.958-71.1 144.555-117.862 242.244-122.778-2.048 8.602-3.072 17.579-3.072 26.795 0 64.853 52.634 117.521 117.555 117.521 33.792 0 64.341-14.302 85.777-37.137 26.761 5.291 51.883 15.053 74.615 28.535-8.772-27.443-27.409-50.449-51.678-65.024 23.791 2.867 46.421 9.148 67.482 18.534-15.701-23.552-35.669-44.305-58.607-60.86zM512 960c-282.726 0-512-229.274-512-512s229.274-512 512-512c282.726 0 512 229.274 512 512s-229.274 512-512 512z" />
<glyph unicode="&#xe908;" glyph-name="video" horiz-adv-x="1334" d="M1014.736 739.626h-866.59c-48.152 0-85.183-37.34-85.183-85.897v-556.532c0-48.533 37.031-85.897 85.183-85.897h866.59c44.461 0 81.491 37.364 81.491 85.897v556.556c0 48.557-37.031 85.897-81.491 85.897zM148.147 803.137h866.59c77.776 0 144.432-67.251 144.432-149.409v-556.532c0-82.158-66.655-149.385-144.432-149.385h-866.59c-81.491 0-148.147 67.227-148.147 149.385v556.556c0 82.158 66.679 149.409 148.123 149.409zM188.892 896.512c-40.746 0-40.746 63.488 0 63.488h1003.615c66.679 0 125.928-56.034 125.928-127v-694.701c0-41.103-62.964-41.103-62.964 0v694.701c0 33.625-29.625 63.512-62.964 63.512h-1003.615zM618.472 373.605l-107.401 67.227v-130.739l107.401 63.512zM696.249 347.457l-199.99-119.546c-22.218-14.908-48.152 3.763-48.152 26.172v242.783c0 26.124 29.648 41.079 48.152 26.124l199.99-119.498c22.218-14.955 22.218-44.842 0-56.034z" />
<glyph unicode="&#xe909;" glyph-name="arrow-top" d="M512.092 519.746l356.108-361.841c12.295-12.165 29.212-19.681 47.885-19.681s35.589 7.516 47.891 19.687l40.34 40.34c12.153 12.209 19.667 29.045 19.667 47.637s-7.514 35.428-19.669 47.639l-444.443 444.585c-12.273 12.157-29.166 19.669-47.814 19.669s-35.541-7.512-47.819-19.674l-444.582-444.582c-12.136-12.216-19.638-29.050-19.638-47.637s7.501-35.42 19.642-47.64l40.342-40.342c12.092-12.156 28.83-19.679 47.326-19.679 0.109 0 0.218 0 0.328 0.001h-0.017c0.066 0 0.144 0 0.222 0 18.235 0 34.709 7.536 46.479 19.662l0.015 0.016 357.735 361.841z" />
<glyph unicode="&#xe90a;" glyph-name="close" d="M602.42 447.996l402.066 402.066c12.024 11.637 19.489 27.922 19.489 45.951 0 35.301-28.617 63.917-63.917 63.917-18.029 0-34.314-7.465-45.934-19.471l-402.083-402.083-402.066 402.066c-11.575 11.575-27.567 18.735-45.23 18.735-35.327 0-63.965-28.638-63.965-63.965 0-17.664 7.16-33.655 18.735-45.23l402.066-401.984-402.066-402.066c-12.024-11.637-19.489-27.922-19.489-45.951 0-35.301 28.617-63.917 63.917-63.917 18.029 0 34.314 7.465 45.934 19.471l402.164 402.001 402.066-402.066c11.485-11.115 27.156-17.965 44.428-17.965 35.301 0 63.917 28.617 63.917 63.917 0 17.271-6.85 32.943-17.982 44.446l0.017-0.017z" />
<glyph unicode="&#xe90b;" glyph-name="account" d="M512 15.626c-146.022 0.082-282.173 73.851-361.923 196.198 26.051 83.968 58.941 162.324 137.544 211.149 25.682 15.442 58.245 13.312 81.715-5.325 83.763-65.536 201.4-65.536 285.245-0.164 23.429 18.678 55.992 20.808 81.674 5.366 78.397-48.906 111.493-127.222 137.667-211.067-79.749-122.307-215.859-196.076-361.923-196.157zM512 777.933c97.362 0 176.292-78.889 176.292-176.292 0-97.362-78.93-176.292-176.292-176.292s-176.292 78.93-176.292 176.292c0 97.403 78.93 176.292 176.292 176.292zM512 960c-282.788 0-512-229.212-512-512s229.212-512 512-512 512 229.212 512 512-229.212 512-512 512z" />
<glyph unicode="&#xe90c;" glyph-name="library" d="M14.605 826.151c-7.992 0-14.591-6.51-14.591-14.547v-563.508c0-2.604 1.796-4.939 4.265-5.612 3.142-0.808 6.33 0.988 7.184 4.131l83.15 307.637c8.575 31.742 37.31 53.743 70.22 53.743h722.4c8.037 0 14.547 6.51 14.547 14.547v116.33c0 8.037-6.465 14.547-14.547 14.547h-581.781c-17.016 0-33.448 5.971-46.559 16.836l-62.991 52.53c-2.559 2.155-5.882 3.368-9.294 3.368h-172.047zM1023.63 517.347c0.269 1.123 0.359 2.245 0.359 3.368 0 8.037-6.465 14.547-14.547 14.547h-824.991c-13.155 0-24.649-8.8-28.061-21.506l-115.072-425.583c-0.315-1.212-0.449-2.514-0.449-3.772 0-8.037 6.51-14.547 14.502-14.547h850.268c6.734 0 12.571 4.624 14.098 11.18l103.938 436.314z" />
<glyph unicode="&#xe90d;" glyph-name="edit" horiz-adv-x="967" d="M776.704-23.381h-731.762c-24.86 0-44.999 20.309-44.999 45.397v737.849c0.057 24.974 20.196 45.284 44.999 45.284h365.852c24.86 0 45.056-20.309 45.056-45.397 0-25.031-20.196-45.397-45.056-45.397h-320.853v-646.997h641.707v323.47c0 25.088 20.139 45.397 44.942 45.397 24.917 0 45.056-20.309 45.056-45.397v-368.868c0-25.088-20.139-45.397-44.999-45.397zM802.987 742.855l-41.415 41.927 55.353 55.808 41.472-41.756-55.41-55.979zM433.55 370.404l-72.476-31.232 31.061 73.102 321.707 324.267 41.415-41.756-321.764-324.38zM953.913 830.919l-105.131 105.927c-17.522 17.863-46.080 17.863-63.716 0l-94.094-94.834c-0.341-0.228-0.683-0.569-1.024-1.024h-0.114l-367.502-370.688c-3.982-4.096-7.282-8.988-9.557-14.222l-78.791-185.458c-7.168-17.067-3.413-36.75 9.557-49.948 8.704-8.704 20.139-13.255 31.858-13.255 5.973 0 12.060 1.138 17.806 3.584l183.808 79.36c5.291 2.276 10.012 5.575 14.052 9.671l462.905 466.716c17.522 17.749 17.522 46.421 0 64.171z" />
<glyph unicode="&#xe90e;" glyph-name="arrow-right" d="M583.746 447.908l-361.841-356.108c-12.165-12.295-19.681-29.212-19.681-47.885s7.516-35.589 19.687-47.891l40.34-40.34c12.209-12.153 29.045-19.667 47.637-19.667s35.428 7.514 47.639 19.669l444.585 444.443c12.157 12.273 19.669 29.166 19.669 47.814s-7.512 35.541-19.674 47.819l-444.582 444.582c-12.216 12.136-29.050 19.638-47.637 19.638s-35.42-7.501-47.64-19.642l-40.342-40.342c-12.156-12.092-19.679-28.83-19.679-47.326 0-0.109 0-0.218 0.001-0.328v0.017c0-0.066 0-0.144 0-0.222 0-18.235 7.536-34.709 19.662-46.479l0.016-0.015 361.841-357.735z" />
<glyph unicode="&#xe90f;" glyph-name="caret-down" d="M948.779 723.794c80.202 0 99.388-45.647 42.374-102.753l-427.56-427.56c-28.553-28.553-75.2-28.189-103.298 0l-427.651 427.56c-56.741 56.741-37.555 102.753 42.374 102.753h873.852z" />
<glyph unicode="&#xe910;" glyph-name="delete" d="M853.613 697.552l-683.298-0.057c-5.102 1.020-16.268 16.041-16.268 28.681 0 12.696 11.166 27.718 16.041 28.681h683.411c5.102-0.963 16.325-15.984 16.325-28.681 0-12.584-11.052-27.491-16.211-28.681zM751.925 1.105h-479.924c-19.838 0-35.993 15.871-35.993 35.257v596.121h151.907v-533.545c0-17.968 14.85-32.536 33.215-32.536s33.215 14.567 33.215 32.536v533.545h115.12v-533.545c0-17.968 14.85-32.536 33.215-32.536s33.215 14.567 33.215 32.536v533.545h151.907v-596.121c0-19.442-16.097-35.257-35.936-35.257zM335.938 875.533c0 10.77 8.955 19.499 19.952 19.499h312.203c10.997 0 19.895-8.729 19.895-19.499v-55.548h-352.050v55.548zM936.311 726.233c0 44.212-35.312 93.695-82.472 93.695h-99.362v55.548c-0.057 46.649-38.827 84.512-86.439 84.512h-312.203c-47.613 0-86.327-37.92-86.327-84.512v-55.548h-99.362c-47.216-0.057-82.472-49.54-82.472-93.808 0-44.041 35.029-93.298 81.962-93.638v-596.178c0-55.264 45.912-100.27 102.367-100.27h479.981c56.398 0 102.31 45.005 102.31 100.27v596.235c46.933 0.34 81.962 49.597 81.962 93.638z" />
<glyph unicode="&#xe911;" glyph-name="email" d="M656.382 393.797l297.434-286.716c-2.799-0.273-5.735-0.409-8.601-0.409h-866.428c-3.004 0-6.144 0.068-9.079 0.409l298.662 286.374 67.72-60.347c43.007-38.365 109.634-38.433 152.642 0l67.651 60.756zM1023.173 721.609c0.478-3.55 0.819-7.305 0.819-11.059v-525.1c0-10.513-2.048-20.753-5.803-29.969l-302.758 291.29 307.741 274.837zM0.827 721.609l308.493-275.247-303.168-291.29c-3.891 9.353-6.144 19.592-6.144 30.378v525.1c0 3.755 0.341 7.509 0.819 11.059zM78.786 789.328h866.428c10.445 0 20.412-2.048 29.559-5.735l-438.607-391.367c-15.292-13.653-32.29-13.653-47.649 0l-439.358 391.367c9.148 3.687 19.114 5.735 29.628 5.735z" />
<glyph unicode="&#xe912;" glyph-name="phone" d="M555.159 744.526c-62.512 3.416-65.985-85.402 0-92.234 97.241-13.664 152.808-75.153 159.753-170.803 3.473-61.489 93.768-64.905 93.768-6.832 6.946 140.059-111.133 266.453-253.522 269.869zM589.888 525.898c-20.837 20.496-55.566 23.912-79.877 3.416-20.837-20.496-24.31-58.073-3.473-78.569 20.837-23.912 55.566-23.912 79.877-3.416 20.837 20.496 24.31 54.657 3.473 78.569zM565.577 956.322c-65.985 3.416-59.039-88.818-10.419-95.65 222.266-17.080 371.6-170.803 371.6-392.847 3.473-47.825 97.241-61.489 97.241 3.416 0 263.037-194.482 464.584-458.423 485.081zM121.046 922.161c-250.049-228.876-65.985-498.745 131.97-703.709 194.482-208.38 458.423-409.927 704.998-181.051 20.837 20.496 55.566 68.321 45.148 99.066-45.148 116.146-135.443 146.891-218.793 170.803-59.039 3.416-79.877-17.080-138.916-88.818-93.768-116.146-486.206 300.613-364.654 382.599 76.404 51.241 100.714 71.737 100.714 129.81-17.364 85.402-45.148 177.635-156.28 225.46-31.256 13.664-83.35-13.664-104.187-34.161z" />
<glyph unicode="&#xe913;" glyph-name="blood" d="M437.826 67.108c-9.634-16.289-30.844-21.764-47.409-12.268h-0.069c-70.352 40.201-125.941 101.473-158.725 174.736-8.595 16.912-1.663 37.36 15.456 45.885 17.051 8.387 37.914 1.594 46.44-15.249 0.623-1.109 1.109-2.148 1.525-3.258 26.824-60.163 72.293-110.346 129.961-143.407 16.496-9.357 22.18-30.082 12.822-46.44zM533.477 952.503c-12.684 9.981-30.705 9.981-43.321 0-12.822-11.645-359.384-287.369-359.384-641 0-207.313 170.647-375.465 381.218-375.465 210.502 0 381.218 168.152 381.218 375.465 0 353.632-346.561 629.355-359.731 641z" />
<glyph unicode="&#xe914;" glyph-name="home" d="M511.988 891.193l411.92-415.040h-45.142c-15.8 0-28.213-12.508-28.213-28.428v-454.838h-677.128v454.838c0 15.919-12.414 28.428-28.213 28.428h-45.142l411.92 415.040zM32.357 419.299h84.641v-454.838c0-15.919 12.414-28.428 28.213-28.428h733.555c15.8 0 28.213 12.508 28.213 28.428v454.838h84.641c24.828 0 37.243 30.702 20.314 48.896l-479.632 483.266c-11.286 11.371-29.342 11.371-39.499 0l-480.76-483.266c-16.928-18.194-4.515-48.896 20.314-48.896v0zM399.128 191.88v227.419h225.709v-227.419h-225.709zM370.915 135.025h282.137c15.811 0 28.213 12.508 28.213 28.428v284.274c0 15.919-12.403 28.428-28.213 28.428h-282.137c-15.789 0-28.213-12.508-28.213-28.428v-284.274c0-15.919 12.426-28.428 28.213-28.428v0z" />
<glyph unicode="&#xe915;" glyph-name="user" d="M589.796 548.35c-0.047-42.407-34.871-76.763-77.839-76.763-42.922 0.047-77.699 34.403-77.699 76.763v96.14c0 42.407 34.824 76.763 77.746 76.763s77.699-34.403 77.746-76.763v-96.094zM512.003 799.936c-86.686 0-156.989-69.367-156.989-154.977v-96.609c0.047-85.562 70.351-154.93 157.036-154.93 86.639 0 156.896 69.367 156.896 154.93v96.14c0.328 85.61-69.742 155.211-156.428 155.492h-0.515zM851.913 183.913c-33.56 101.009-128.999 169.3-236.655 169.441h-206.511c-107.656-0.141-203.094-68.431-236.701-169.441-147.909 185.354-115.612 454.025 72.176 600.062 187.694 146.037 459.782 114.115 607.691-71.24 123.71-155.118 123.71-373.751 0-528.822zM239.214 116.512c5.008 88.932 79.384 158.487 169.534 158.674h206.511c90.15-0.187 164.525-69.742 169.487-158.674-158.815-127.876-386.811-127.876-545.625 0h0.141zM512.050 953.508c-282.759 0-512.018-226.357-512.018-505.512s229.212-505.512 511.971-505.512c282.713 0 511.971 226.357 511.971 505.512-0.374 279.014-229.353 505.138-511.971 505.512z" />
<glyph unicode="&#xe916;" glyph-name="building" d="M972.8 12.8c0-15.36-12.8-25.6-25.6-25.6h-391.68v622.080h391.68c12.8 0 25.6-12.8 25.6-25.6v-570.88zM504.32-12.8h-58.88v145.92c0 43.52-33.28 76.8-76.8 76.8h-179.2c-43.52 0-76.8-33.28-76.8-76.8v-145.92h-35.84c-12.8 0-25.6 10.24-25.6 25.6v870.4c0 15.36 12.8 25.6 25.6 25.6h401.92c12.8 0 25.6-10.24 25.6-25.6v-896zM391.68-12.8h-89.6v171.52h64c15.36 0 25.6-12.8 25.6-25.6v-145.92zM161.28-12.8v145.92c0 12.8 10.24 25.6 25.6 25.6h64v-171.52h-89.6zM947.2 660.48h-391.68v222.72c0 40.96-33.28 76.8-76.8 76.8h-401.92c-43.52 0-76.8-35.84-76.8-76.8v-870.4c0-43.52 33.28-76.8 76.8-76.8h870.4c43.52 0 76.8 33.28 76.8 76.8v570.88c0 43.52-33.28 76.8-76.8 76.8v0zM417.275 785.925h-281.6c-15.36 0-25.6 10.24-25.6 25.6s10.24 25.6 25.6 25.6h281.6c15.36 0 25.6-10.24 25.6-25.6s-10.24-25.6-25.6-25.6zM417.275 657.925h-281.6c-15.36 0-25.6 10.24-25.6 25.6s10.24 25.6 25.6 25.6h281.6c15.36 0 25.6-10.24 25.6-25.6s-10.24-25.6-25.6-25.6zM417.275 529.925h-281.6c-15.36 0-25.6 10.24-25.6 25.6s10.24 25.6 25.6 25.6h281.6c15.36 0 25.6-10.24 25.6-25.6s-10.24-25.6-25.6-25.6zM417.275 401.925h-281.6c-15.36 0-25.6 10.24-25.6 25.6s10.24 25.6 25.6 25.6h281.6c15.36 0 25.6-10.24 25.6-25.6s-10.24-25.6-25.6-25.6zM903.675 478.725h-281.6c-15.36 0-25.6 10.24-25.6 25.6s10.24 25.6 25.6 25.6h281.6c15.386 0 25.6-10.24 25.6-25.6s-10.214-25.6-25.6-25.6zM903.675 350.725h-281.6c-15.36 0-25.6 10.24-25.6 25.6s10.24 25.6 25.6 25.6h281.6c15.386 0 25.6-10.24 25.6-25.6s-10.214-25.6-25.6-25.6zM903.675 222.725h-281.6c-15.36 0-25.6 10.214-25.6 25.6 0 15.36 10.24 25.6 25.6 25.6h281.6c15.386 0 25.6-10.24 25.6-25.6 0-15.386-10.214-25.6-25.6-25.6z" />
<glyph unicode="&#xe917;" glyph-name="switch-profile" d="M539.454 939.105c-112.172 0-214.806-38.188-295.973-102.635l59.656-58.502c66.841 48.923 147.966 77.574 236.317 77.574 221.948 1.198 402.2-181.407 402.2-406.947 0-225.583-180.209-408.145-402.2-408.145-221.948 0-404.553 182.605-404.553 408.145 0 54.91 10.691 107.425 31.004 156.347l26.257-65.643 66.841 27.455-48.923 121.707-27.455 66.841-64.446-31.047-118.158-54.867 29.849-65.643 58.459 27.455c-22.665-56.107-35.794-118.158-35.794-183.802 0-270.913 217.201-490.509 485.719-490.509 268.561 0 485.719 219.595 485.719 490.509 0 272.111-217.201 491.706-484.522 491.706zM748.316 238.579c1.198 3.549 1.198 7.141 1.198 10.734-1.198 29.807-7.184 57.262-17.876 82.321-32.287 76.378-107.425 128.892-194.578 128.892-88.309 0-163.489-52.515-195.733-128.892-11.888-25.060-17.876-53.712-17.876-82.364-1.198-3.549-1.198-7.141-1.198-10.691v-40.584c62.051-39.429 134.836-62.094 213.609-62.094 77.574 0 150.36 21.51 212.454 60.896v41.781zM535.862 764.882c-77.746 0-140.823-63.035-140.823-140.866 0-77.746 63.077-140.823 140.823-140.823 77.789 0 140.823 63.077 140.823 140.823 0 77.789-63.035 140.866-140.823 140.866z" />
<glyph unicode="&#xe918;" glyph-name="logout" d="M511.992 431.899c-24.863 0-45.056 20.193-45.056 45.056v421.274c0 24.904 20.193 45.056 45.056 45.056s45.056-20.152 45.056-45.056v-421.274c0-24.863-20.193-45.056-45.056-45.056zM960.75 402.613c0.369 182.395-110.387 346.644-279.593 414.761-1.638 0.819-3.359 1.475-5.079 2.048-23.593 7.946-49.152-4.792-57.098-28.344-7.905-23.593 4.833-49.152 28.385-57.098 89.58-36.413 160.604-107.479 197.018-197.018 74.67-183.501-13.517-392.724-197.018-467.354-183.46-74.67-392.684 13.558-467.354 197.018-74.67 183.501 13.558 392.724 197.018 467.354 20.521 9.83 30.515 33.423 23.265 55.009-7.905 23.593-33.464 36.291-57.057 28.344-169.656-68.813-280.412-233.8-280.003-416.891 0.614-247.808 202.015-448.266 449.823-447.693 247.849 0.614 448.266 202.015 447.693 449.864z" />
<glyph unicode="&#xe919;" glyph-name="arrow-left" d="M440.254 448.092l361.841 356.108c12.165 12.295 19.681 29.212 19.681 47.885s-7.516 35.589-19.687 47.891l-40.34 40.34c-12.209 12.153-29.045 19.667-47.637 19.667s-35.428-7.514-47.639-19.669l-444.585-444.443c-12.157-12.273-19.669-29.166-19.669-47.814s7.512-35.541 19.674-47.819l444.582-444.582c12.216-12.136 29.050-19.638 47.637-19.638s35.42 7.501 47.64 19.642l40.342 40.342c12.156 12.092 19.679 28.83 19.679 47.326 0 0.109 0 0.218-0.001 0.328v-0.017c0 0.066 0 0.144 0 0.222 0 18.235-7.536 34.709-19.662 46.479l-0.016 0.015-361.841 357.735z" />
<glyph unicode="&#xe91a;" glyph-name="anchor-left" d="M15.418 487.243l341.331 360.293c19.208 19.208 60.288 25.803 82.65 4.547 22.445-21.297 22.28-61.64-0.246-82.773l-250.080-264.292h777.967c31.413 0 56.929-25.475 56.929-56.888 0-31.373-25.516-56.848-56.929-56.848h-778.008l250.080-264.292c22.526-21.133 24.041-63.032 0.246-82.773-21.952-18.267-62.664-19.086-82.65 4.547l-341.29 360.293c-14.499 14.539-25.803 52.834 0 78.227z" />
<glyph unicode="&#xe91b;" glyph-name="anchor-right" d="M1008.586 487.244l-341.337 360.3c-19.209 19.209-60.289 25.803-82.652 4.547-22.445-21.298-22.28-61.641 0.246-82.775l250.084-264.297h-777.981c-31.414 0-56.93-25.475-56.93-56.889 0-31.374 25.517-56.849 56.93-56.849h778.023l-250.084-264.297c-22.526-21.134-24.042-63.033-0.246-82.775 21.953-18.267 62.665-19.086 82.652 4.547l341.296 360.3c14.499 14.539 25.803 52.835 0 78.228z" />
<glyph unicode="&#xe91c;" glyph-name="arrow-bottom" d="M511.18 277.059l-438.088 435.531c-16.62 16.79-43.724 16.876-60.514 0.171-16.705-16.62-16.79-43.724 0-60.514l468.601-468.857c16.535-16.705 43.553-16.876 60.258-0.341l0.256 0.256 469.709 467.748c16.705 16.705 16.79 43.809 0.171 60.514-16.79 16.79-43.809 16.79-60.514 0.171l-439.792-434.679z" />
<glyph unicode="&#xe91d;" glyph-name="check" d="M11.822 408.729c-7.278 6.945-11.804 16.719-11.804 27.551s4.526 20.606 11.79 27.537l0.015 0.014 55.101 55.101c6.945 7.278 16.719 11.804 27.551 11.804s20.606-4.526 27.537-11.79l0.014-0.015 3.958-3.958 216.448-232.278c3.472-3.639 8.359-5.902 13.775-5.902s10.303 2.263 13.768 5.894l0.007 0.008 528.029 547.056h3.958c6.945 7.278 16.719 11.804 27.551 11.804s20.606-4.526 27.537-11.79l0.014-0.015 55.101-55.101c7.278-6.945 11.804-16.719 11.804-27.551s-4.526-20.606-11.79-27.537l-0.015-0.014-630.47-653.302c-6.945-7.278-16.719-11.804-27.551-11.804s-20.606 4.526-27.537 11.79l-0.014 0.015-307.015 330.608-7.763 11.873z" />
<glyph unicode="&#xe91e;" glyph-name="filter" d="M1020.304 931.577c7.271-17.452 3.636-37.813-10.181-50.903l-358.499-358.499v-539.567c0-18.906-11.635-35.632-28.36-42.903-5.817-2.181-12.362-3.636-18.18-3.636-12.362 0-23.997 4.364-32.723 13.816l-186.158 186.158c-8.726 8.726-13.816 20.361-13.816 32.723v353.409l-358.499 358.499c-13.816 13.090-17.452 33.451-10.181 50.903 7.271 16.725 23.997 28.36 42.903 28.36h930.791c18.906 0 35.632-11.635 42.903-28.36z" />
<glyph unicode="&#xe91f;" glyph-name="inr" horiz-adv-x="512" d="M511.993 654.385v-58.154c0-10.263-7.982-18.245-18.245-18.245h-95.783c-17.674-109.466-101.484-180.733-230.906-196.127 84.951-90.652 175.602-200.118 261.693-305.594 4.561-5.131 5.701-13.113 2.281-19.385-2.851-6.272-9.122-10.263-16.534-10.263h-111.177c-5.701 0-10.832 2.281-14.254 6.841-91.792 110.037-176.172 210.951-283.928 325.548-3.421 3.421-5.131 7.982-5.131 12.543v72.407c0 9.692 7.982 18.245 18.245 18.245h63.855c100.344 0 163.060 33.638 179.593 95.783h-243.448c-10.263 0-18.245 7.982-18.245 18.245v58.154c0 10.263 7.982 18.245 18.245 18.245h235.466c-21.665 42.76-72.978 64.425-152.797 64.425h-82.67c-10.263 0-18.245 8.552-18.245 18.245v75.828c0 10.263 7.982 18.245 18.245 18.245h474.354c10.263 0 18.245-7.982 18.245-18.245v-58.154c0-10.263-7.982-18.245-18.245-18.245h-132.842c18.245-23.376 30.218-50.742 36.488-82.1h97.493c10.263 0 18.245-7.982 18.245-18.245z" />
<glyph unicode="&#xe920;" glyph-name="calendar" d="M914.286 850.286h-109.714v73.142c0 20.199-16.374 36.572-36.572 36.572s-36.572-16.374-36.572-36.572v-73.142h-438.857v73.142c0 20.199-16.374 36.572-36.57 36.572s-36.572-16.374-36.572-36.572v-73.142h-109.714c-60.594 0-109.714-49.121-109.714-109.714v-694.857c0-60.594 49.121-109.714 109.714-109.714h804.572c60.594 0 109.714 49.121 109.714 109.714v694.857c0 60.594-49.121 109.714-109.714 109.714zM950.856 45.714c0-20.199-16.374-36.572-36.572-36.572h-804.569c-20.199 0-36.572 16.374-36.572 36.572v475.429h877.714v-475.429zM950.856 594.285h-877.714v146.286c0 20.199 16.374 36.572 36.572 36.572h109.714v-73.142c0-20.199 16.374-36.572 36.572-36.572s36.572 16.374 36.572 36.572v73.142h438.857v-73.142c0-20.199 16.374-36.572 36.572-36.572s36.572 16.374 36.572 36.572v73.142h109.714c20.199 0 36.572-16.374 36.572-36.572v-146.286zM292.571 448.001h-73.142c-20.199 0-36.572-16.374-36.572-36.572s16.374-36.572 36.572-36.572h73.142c20.199 0 36.572 16.374 36.572 36.572s-16.374 36.572-36.572 36.572zM548.571 448.001h-73.142c-20.199 0-36.572-16.374-36.572-36.572s16.374-36.572 36.572-36.572h73.142c20.199 0 36.572 16.374 36.572 36.572s-16.374 36.572-36.572 36.572zM804.572 448.001h-73.142c-20.199 0-36.572-16.374-36.572-36.572s16.374-36.572 36.572-36.572h73.142c20.199 0 36.572 16.374 36.572 36.572-0.002 20.199-16.376 36.572-36.572 36.572zM292.571 301.715h-73.142c-20.199 0-36.572-16.374-36.572-36.572s16.374-36.572 36.572-36.572h73.142c20.199 0 36.572 16.374 36.572 36.572s-16.374 36.572-36.572 36.572zM548.571 301.715h-73.142c-20.199 0-36.572-16.374-36.572-36.572s16.374-36.572 36.572-36.572h73.142c20.199 0 36.572 16.374 36.572 36.572s-16.374 36.572-36.572 36.572zM804.572 301.715h-73.142c-20.199 0-36.572-16.374-36.572-36.572s16.374-36.572 36.572-36.572h73.142c20.199 0 36.572 16.374 36.572 36.572-0.002 20.199-16.376 36.572-36.572 36.572zM292.571 155.428h-73.142c-20.199 0-36.572-16.374-36.572-36.572s16.374-36.57 36.572-36.57h73.142c20.199 0 36.572 16.374 36.572 36.572s-16.374 36.57-36.572 36.57zM548.571 155.428h-73.142c-20.199 0-36.572-16.374-36.572-36.572s16.374-36.572 36.572-36.572h73.142c20.199 0 36.572 16.374 36.572 36.572s-16.374 36.572-36.572 36.572zM804.572 155.428h-73.142c-20.199 0-36.572-16.374-36.572-36.572s16.374-36.572 36.572-36.572h73.142c20.199 0 36.572 16.374 36.572 36.572s-16.376 36.572-36.572 36.572z" />
<glyph unicode="&#xe921;" glyph-name="add-button" d="M981.333 490.667c-23.552 0-42.667-19.115-42.667-42.667 0-235.264-191.403-426.667-426.667-426.667s-426.667 191.403-426.667 426.667 191.403 426.667 426.667 426.667c114.539 0 222.059-44.757 302.784-126.037 16.576-16.725 43.605-16.832 60.331-0.213 16.725 16.597 16.811 43.605 0.213 60.331-96.853 97.536-225.899 151.253-363.328 151.253-282.325 0-512-229.675-512-512s229.675-512 512-512 512 229.675 512 512c0 23.552-19.115 42.667-42.667 42.667zM682.667 490.667h-128v128c0 23.552-19.115 42.667-42.667 42.667s-42.667-19.115-42.667-42.667v-128h-128c-23.552 0-42.667-19.115-42.667-42.667s19.115-42.667 42.667-42.667h128v-128c0-23.552 19.115-42.667 42.667-42.667s42.667 19.115 42.667 42.667v128h128c23.552 0 42.667 19.115 42.667 42.667s-19.115 42.667-42.667 42.667z" />
<glyph unicode="&#xe922;" glyph-name="fb" d="M874 960h-724c-82.703 0-150-67.297-150-150v-724c0-82.703 67.297-150 150-150h302v362h-120v180h120v122c0 99.258 80.742 180 180 180h182v-180h-182v-122h182l-30-180h-152v-362h242c82.703 0 150 67.297 150 150v724c0 82.703-67.297 150-150 150z" />
<glyph unicode="&#xe923;" glyph-name="insta" d="M704 960h-384c-176.704 0-320-143.296-320-320v-384c0-176.704 143.296-320 320-320h384c176.704 0 320 143.296 320 320v384c0 176.704-143.296 320-320 320zM928 256c0-123.52-100.48-224-224-224h-384c-123.52 0-224 100.48-224 224v384c0 123.52 100.48 224 224 224h384c123.52 0 224-100.48 224-224v-384zM512 704c-141.376 0-256-114.624-256-256s114.624-256 256-256 256 114.624 256 256-114.624 256-256 256zM512 288c-88.192 0-160 71.808-160 160 0 88.256 71.808 160 160 160s160-71.744 160-160c0-88.192-71.808-160-160-160zM821.312 723.2c0-18.84-15.272-34.112-34.112-34.112s-34.112 15.272-34.112 34.112c0 18.84 15.272 34.112 34.112 34.112s34.112-15.272 34.112-34.112z" />
<glyph unicode="&#xe924;" glyph-name="lkd" d="M950.148 960h-876.297c-40.789 0-73.852-33.063-73.852-73.852v-876.297c0-40.789 33.063-73.852 73.852-73.852h876.297c40.789 0 73.852 33.063 73.852 73.852v876.297c0 40.789-33.063 73.852-73.852 73.852zM363.219 186h-124.695v375.148h124.695zM300.875 612.375h-0.813c-41.844 0-68.906 28.805-68.906 64.805 0 36.813 27.891 64.82 70.547 64.82s68.906-28.008 69.719-64.82c0-36-27.063-64.805-70.547-64.805zM812.844 186h-124.68v200.695c0 50.438-18.055 84.836-63.172 84.836-34.445 0-54.961-23.203-63.977-45.602-3.297-8.016-4.102-19.219-4.102-30.43v-209.5h-124.688s1.633 339.953 0 375.148h124.688v-53.117c16.57 25.563 46.219 61.922 112.375 61.922 82.039 0 143.555-53.617 143.555-168.844z" />
<glyph unicode="&#xe925;" glyph-name="twt" d="M1024 765.504c-38.080-16.704-78.656-27.776-120.96-33.152 43.52 25.984 76.736 66.816 92.352 116.032-40.576-24.192-85.376-41.28-133.12-50.816-38.528 41.024-93.44 66.432-153.344 66.432-116.224 0-209.792-94.336-209.792-209.984 0-16.64 1.408-32.64 4.864-47.872-174.528 8.512-328.96 92.16-432.704 219.584-18.112-31.424-28.736-67.392-28.736-106.112 0-72.704 37.44-137.152 93.248-174.464-33.728 0.64-66.816 10.432-94.848 25.856 0-0.64 0-1.472 0-2.304 0-102.016 72.768-186.752 168.192-206.272-17.088-4.672-35.712-6.912-55.040-6.912-13.44 0-27.008 0.768-39.744 3.584 27.2-83.136 104.384-144.256 196.16-146.24-71.424-55.872-162.112-89.536-260.288-89.536-17.216 0-33.728 0.768-50.24 2.88 92.992-59.968 203.2-94.208 322.048-94.208 386.304 0 597.504 320 597.504 597.376 0 9.28-0.32 18.24-0.768 27.136 41.664 29.568 76.672 66.496 105.216 108.992z" />
<glyph unicode="&#xe926;" glyph-name="plane" d="M373.325 187.216v-197.884c0-13.824 8.875-26.068 22.016-30.42 3.285-1.067 6.656-1.579 9.984-1.579 9.984 0 19.627 4.693 25.77 13.056l115.752 157.522zM1010.538 932.713c-9.813 6.955-22.698 7.893-33.364 2.304l-959.979-501.322c-11.349-5.931-18.048-18.048-17.109-30.804 0.981-12.8 9.472-23.722 21.547-27.86l266.874-91.219 568.35 485.962-439.798-529.865 447.265-152.872c3.328-1.109 6.827-1.707 10.325-1.707 5.803 0 11.563 1.579 16.64 4.651 8.107 4.949 13.611 13.269 15.019 22.613l117.33 789.316c1.749 11.947-3.285 23.807-13.099 30.804z" />
<glyph unicode="&#xe927;" glyph-name="left-arrow" d="M331.284 447.762l444.985 444.985c15.384 15.386 15.384 40.33 0 55.716-15.388 15.381-40.33 15.381-55.716 0l-472.843-472.843c-15.381-15.386-15.381-40.33 0-55.716l472.843-472.843c15.654-15.118 40.598-14.684 55.716 0.97 14.746 15.27 14.746 39.478 0 54.746l-444.985 444.985z" />
<glyph unicode="&#xe928;" glyph-name="cancel" d="M874.261 810.121c-199.654 199.654-524.619 199.654-724.273 0-96.713-96.751-149.987-225.358-149.987-362.136s53.275-265.385 149.987-362.098c99.847-99.847 230.992-149.749 362.136-149.749s262.291 49.902 362.136 149.749c199.654 199.654 199.654 524.541 0.002 724.233zM818.168 141.98c-168.752-168.752-443.338-168.752-612.090 0-81.717 81.717-126.741 190.41-126.741 306.005s45.024 224.288 126.741 306.045c168.752 168.752 443.338 168.712 612.090 0 168.712-168.752 168.712-443.338 0-612.050zM683.057 338.34l-112.303 112.143 112.303 112.143c15.47 15.47 15.47 40.58 0.040 56.093-15.51 15.55-40.62 15.51-56.131 0.040l-112.381-112.223-112.381 112.223c-15.51 15.47-40.62 15.51-56.131-0.040-15.47-15.51-15.47-40.62 0.040-56.093l112.303-112.143-112.303-112.143c-15.51-15.47-15.51-40.58-0.040-56.093 7.736-7.774 17.93-11.622 28.086-11.622s20.31 3.888 28.046 11.584l112.381 112.223 112.381-112.223c7.736-7.736 17.89-11.584 28.046-11.584s20.35 3.888 28.086 11.622c15.466 15.512 15.466 40.622-0.044 56.093z" />
<glyph unicode="&#xe929;" glyph-name="plus" d="M557.964 685.498v0c0 17.467-14.16 31.628-31.628 31.628h-28.65c-17.461-0.013-31.613-14.166-31.626-31.628v-198.121h-198.121c-17.467 0-31.628-14.16-31.628-31.628v-28.7c0.053-17.427 14.19-31.54 31.628-31.553h198.121v-198.191c0-17.467 14.16-31.628 31.628-31.628h28.627c17.461 0.013 31.613 14.166 31.626 31.628v198.121h198.121c17.467 0 31.628 14.16 31.628 31.628v28.696c-0.013 17.461-14.166 31.613-31.628 31.626h-198.121zM0 448c0 282.77 229.23 512 512 512s512-229.23 512-512c0-282.77-229.23-512-512-512v0c-282.77 0-512 229.23-512 512v0z" />
<glyph unicode="&#xe92a;" glyph-name="greeting-card" d="M676.567 740.571c10.099 0 18.286 8.187 18.286 18.286s-8.187 18.286-18.286 18.286c-10.099 0-18.286-8.187-18.286-18.286v0c0-10.099 8.187-18.286 18.286-18.286v0zM603.424 740.571c10.099 0 18.286 8.187 18.286 18.286s-8.187 18.286-18.286 18.286c-10.099 0-18.286-8.187-18.286-18.286v0c0-10.099 8.187-18.286 18.286-18.286v0zM274.281 118.857h146.286c10.099 0 18.286 8.187 18.286 18.286s-8.187 18.286-18.286 18.286h-146.286c-10.099 0-18.286-8.187-18.286-18.286s8.187-18.286 18.286-18.286v0zM676.567 82.286h-402.286c-10.099 0-18.286-8.187-18.286-18.286s8.187-18.286 18.286-18.286h402.286c10.099 0 18.286 8.187 18.286 18.286s-8.187 18.286-18.286 18.286v0zM786.281 960h-548.571c-50.477-0.044-91.385-40.952-91.429-91.424v-841.147c0.044-50.477 40.952-91.385 91.424-91.429h548.576c50.477 0.044 91.385 40.952 91.429 91.424v841.147c-0.044 50.477-40.952 91.385-91.424 91.429h-0.004zM841.138 27.429c-0.033-30.284-24.574-54.824-54.854-54.857h-548.575c-30.284 0.033-54.824 24.574-54.857 54.854v841.146c0.033 30.284 24.574 54.824 54.854 54.857h548.575c30.284-0.033 54.824-24.574 54.857-54.854v-0.003zM749.71 850.286h-475.429c-10.099 0-18.286-8.187-18.286-18.286v0-621.714c0-10.099 8.187-18.286 18.286-18.286v0h475.429c10.099 0 18.286 8.187 18.286 18.286v0 621.714c0 10.099-8.187 18.286-18.286 18.286v0zM530.281 228.571h-36.571v73.143h36.571zM587.448 630.453c-0.613-1.414-1.976-2.395-3.574-2.444h-51.187c6.658 5.006 12.532 10.356 17.869 16.203l0.090 0.1c6.4 7.64 11.849 16.391 15.976 25.85l0.269 0.693 20.403-32.991c0.684-1.090 1.090-2.416 1.090-3.836 0-1.314-0.347-2.546-0.955-3.611l0.019 0.036zM591.798 542.874l29.738-48.39c0.682-1.076 1.086-2.387 1.086-3.791 0-1.326-0.361-2.568-0.989-3.633l0.018 0.033c-0.588-1.463-1.98-2.484-3.614-2.521h-75.073c21.787 13.955 38.666 33.884 48.526 57.476l0.306 0.826zM522.87 668.122c-21.62-22.862-52.164-37.092-86.032-37.092-0.151 0-0.303 0-0.454 0.001h0.023c-0.234 0.503-0.427 1.089-0.55 1.701l-0.008 0.051c-0.009 0.147-0.014 0.318-0.014 0.491s0.005 0.344 0.016 0.514l-0.001-0.023c-0.027 0.225-0.043 0.485-0.043 0.748 0 1.268 0.36 2.453 0.983 3.457l-0.016-0.028 56.686 91.506c3.725 6.605 10.695 10.993 18.69 10.993s14.965-4.387 18.634-10.886l0.055-0.107 8.257-13.474c0.131-1.534 0.206-3.32 0.206-5.123 0-16.466-6.247-31.473-16.5-42.781l0.048 0.054zM461.95 591.437h97.838c1.448-4.604 2.29-9.899 2.31-15.389v-0.010c0-49.525-69.774-91.313-156.006-91.275h-0.404c-1.581 0.176-2.89 1.184-3.492 2.571l-0.011 0.028-0.25 0.808c-0.282 0.56-0.474 1.213-0.537 1.904l-0.002 0.021c-0.034 0.259-0.053 0.558-0.053 0.862 0 1.361 0.385 2.632 1.052 3.711l-0.017-0.030zM424.301 448h169.383c-16.457-60.15-112.525-108.136-223.49-109.56-1.561 0.187-2.855 1.174-3.473 2.533l-0.011 0.027-0.115 0.366c-0.325 0.636-0.567 1.374-0.688 2.153l-0.005 0.041c-0.041 0.281-0.065 0.606-0.065 0.936 0 1.305 0.368 2.524 1.006 3.559l-0.017-0.029zM619.111 414.277l38.15-66.271c0.618-1.042 0.984-2.297 0.984-3.638s-0.365-2.596-1.002-3.671l0.018 0.033c-0.612-1.4-1.955-2.374-3.533-2.444h-119.617c35.971 16.331 65.065 42.526 84.526 75.135l0.474 0.857zM731.424 228.571h-164.571v73.143h86.848c15.063 0.037 28.192 8.279 35.158 20.492l0.105 0.199c3.682 6.292 5.857 13.854 5.857 21.924s-2.174 15.632-5.969 22.132l0.113-0.209-50.315 87.406c6.255 3.84 11.303 9.079 14.808 15.304l0.109 0.21c3.516 6.176 5.589 13.569 5.589 21.447 0 8.494-2.41 16.424-6.583 23.146l0.108-0.187-50.603 82.42c7.356 3.787 13.27 9.485 17.217 16.445l0.107 0.204c3.499 6.164 5.562 13.54 5.562 21.398 0 8.514-2.421 16.462-6.613 23.194l0.108-0.186-45.83 74.067-0.693 1.675-10.028 16.13c-10.403 16.923-28.761 28.073-49.735 28.218h-0.175c-20.977-0.152-39.305-11.348-49.476-28.056l-0.146-0.258-0.115-0.173-56.609-91.429v-0.231c-2.451-4.107-4.288-8.895-5.233-13.995l-0.041-0.267c-0.25-1.309-0.481-2.598-0.616-3.946-0.2-1.57-0.314-3.387-0.314-5.23 0-7.628 1.956-14.798 5.394-21.038l-0.114 0.225c0.955-1.467 1.88-2.722 2.869-3.923l-0.058 0.073 1.174-1.578c3.613-4.652 8.106-8.438 13.252-11.153l0.222-0.107-50.873-82.613c-1.883-3.028-3.474-6.519-4.596-10.215l-0.082-0.314c-0.388-1.599-0.707-3.534-0.892-5.509l-0.013-0.169c-0.369-1.561-0.669-3.447-0.836-5.37l-0.011-0.154c0.044-2.256 0.266-4.427 0.653-6.541l-0.038 0.247c0.099-1.862 0.291-3.583 0.576-5.273l-0.037 0.268c0.692-2.376 1.464-4.387 2.38-6.318l-0.109 0.255c0.56-1.788 1.109-3.229 1.728-4.632l-0.111 0.282 0.212-0.327 0.25-0.616c1.288-2.054 2.614-3.833 4.066-5.498l-0.044 0.051c0.693-0.885 1.251-1.925 1.925-2.714 1.906-1.959 3.989-3.726 6.232-5.279l0.139-0.091c0.577-0.404 1.059-0.943 1.655-1.309 0.289-0.173 0.52-0.481 0.847-0.654l-50.295-87.329c-3.631-6.236-5.775-13.724-5.775-21.714 0-0.040 0-0.080 0-0.12v0.006c0-0.616 0.173-1.213 0.212-1.829 0.088-3.259 0.511-6.374 1.237-9.371l-0.062 0.305c0.716-2.278 1.486-4.19 2.383-6.029l-0.112 0.254c0.561-1.724 1.129-3.138 1.774-4.508l-0.099 0.235 0.212-0.289c0.154-0.25 0.192-0.52 0.327-0.77 1.386-2.17 2.858-4.057 4.486-5.796l-0.020 0.022c0.52-0.616 0.924-1.347 1.463-1.925 7.323-7.904 17.749-12.845 29.328-12.877h86.873v-73.258h-164.571v585.143h438.857z" />
<glyph unicode="&#xe92b;" glyph-name="letter-head" d="M861.574 899.426v60.574h-778.202v-963.426h79.033v-60.574h778.202v963.426zM112.245 931.070h720.419v-905.586h-720.419zM911.697-35.070h-720.361v31.644h670.239v873.865h50.045zM212.971 775.949c36.547 0 66.175 29.628 66.175 66.175s-29.628 66.175-66.175 66.175c-36.547 0-66.175-29.628-66.175-66.175 0-0.034 0-0.068 0-0.102v0.005c0.088-36.493 29.675-66.046 66.172-66.079h0.003zM212.971 879.37c20.57 0 37.245-16.675 37.245-37.245s-16.675-37.245-37.245-37.245c-20.536 0-37.19 16.62-37.245 37.144v0.005c0 0.011 0 0.025 0 0.039 0 20.578 16.671 37.262 37.243 37.284h0.002zM613.832 856.58h39.324v-28.93h-39.324zM677.851 856.58h86.366v-28.93h-86.366zM161.251 736.587h626.353v-28.93h-626.353zM161.251 619.501h626.353v-28.93h-626.353zM161.251 572.67h626.353v-28.93h-626.353zM161.251 525.839h626.353v-28.93h-626.353zM161.251 479.009h626.353v-28.93h-626.353zM161.251 432.178h329.586v-28.93h-329.586zM613.832 162.897h150.366v-28.93h-150.366zM161.251 162.897h150.366v-28.93h-150.366zM613.832 116.066h150.366v-28.93h-150.366z" />
<glyph unicode="&#xe92c;" glyph-name="flyer" d="M895.994 813.714h-237.714v128c0 10.099-8.187 18.286-18.286 18.286v0h-512c-10.099 0-18.286-8.187-18.286-18.286v-841.143c0-10.099 8.187-18.286 18.286-18.286v0h237.714v-128c0-0.366 0.192-0.674 0.192-1.039 0.393-2.629 1.065-4.995 1.998-7.223l-0.073 0.198c0.108-0.406 0.22-0.739 0.349-1.063l-0.022 0.062c0.82-1.422 1.764-2.648 2.849-3.734v0l0.115-0.154c1.463-1.402 3.168-2.565 5.045-3.418l0.114-0.046c0.481-0.212 0.943-0.404 1.463-0.577 1.848-0.759 3.991-1.221 6.236-1.27h512.020c10.099 0 18.286 8.187 18.286 18.286v0 841.124c0 10.099-8.187 18.286-18.286 18.286v0zM146.279 923.429h475.429v-804.571h-475.429zM571.143 82.286l-168.864-96.491v96.491zM877.708-27.429h-424.864l196.215 112.12c2.763 2.386 4.248 3.688 5.729 4.993l-1.167-1.009c1.358 1.722 2.527 3.688 3.421 5.799l0.063 0.168c0.345 1.062 0.604 2.304 0.726 3.586l0.006 0.072c0.174 0.615 0.335 1.384 0.45 2.167l0.012 0.104v676.571h219.409zM201.137 594.286h365.714c10.099 0 18.286 8.187 18.286 18.286v0 256c0 10.099-8.187 18.286-18.286 18.286v0h-365.714c-10.099 0-18.286-8.187-18.286-18.286v0-256c0-10.099 8.187-18.286 18.286-18.286v0zM219.422 850.286h329.143v-219.429h-329.143zM182.851 502.857c0 10.099 8.187 18.286 18.286 18.286v0h365.714c10.099 0 18.286-8.187 18.286-18.286s-8.187-18.286-18.286-18.286h-365.714c-10.099 0-18.286 8.187-18.286 18.286v0zM182.851 429.714c0 10.099 8.187 18.286 18.286 18.286v0h365.714c10.099 0 18.286-8.187 18.286-18.286s-8.187-18.286-18.286-18.286h-365.714c-10.099 0-18.286 8.187-18.286 18.286v0zM182.851 356.571c0 10.099 8.187 18.286 18.286 18.286v0h365.714c10.099 0 18.286-8.187 18.286-18.286s-8.187-18.286-18.286-18.286h-365.714c-10.099 0-18.286 8.187-18.286 18.286v0zM329.137 173.714c0-10.099-8.187-18.286-18.286-18.286h-109.714c-10.099 0-18.286 8.187-18.286 18.286s8.187 18.286 18.286 18.286h109.714c10.099 0 18.286-8.187 18.286-18.286v0zM585.137 173.714c0-10.099-8.187-18.286-18.286-18.286v0h-109.714c-10.099 0-18.286 8.187-18.286 18.286s8.187 18.286 18.286 18.286h109.714c10.099 0 18.286-8.187 18.286-18.286v0z" />
<glyph unicode="&#xe92d;" glyph-name="poster" d="M800.458 74.52c0-12.755-10.34-23.095-23.095-23.095v0h-519.188c-12.755 0-23.095 10.34-23.095 23.095s10.34 23.095 23.095 23.095h519.207c12.746-0.011 23.075-10.347 23.075-23.095v0zM235.1 189.994c0-12.755 10.34-23.095 23.095-23.095v0h519.188c12.755 0 23.095 10.34 23.095 23.095s-10.34 23.095-23.095 23.095h-519.207c0 0 0 0 0 0-12.755 0-23.095-10.34-23.095-23.095 0-0.034 0-0.068 0-0.101v0.005zM995.454 690.648c-2.279-8.214-8.902-14.445-17.177-16.123l-0.144-0.024-65.762-14.992-8.083-47.306v-606.909c-0.087-38.229-31.055-69.197-69.276-69.284h-646.121c-38.229 0.087-69.197 31.055-69.284 69.276v606.917l-8.083 47.306-65.762 14.992c-8.217 2.101-14.664 8.159-17.271 15.975l-0.050 0.173c-0.565 1.943-0.891 4.174-0.891 6.482 0 6.448 2.54 12.304 6.672 16.621l-0.008-0.009 251.54 238.837c4.308 4.124 10.164 6.664 16.613 6.664 2.308 0 4.539-0.325 6.652-0.932l-0.17 0.042c8.211-2.527 14.216-9.699 14.986-18.376l0.006-0.081 11.547-66.917 62.298-13.837h227.387l62.298 13.837 11.528 66.974c1.5 8.458 7.202 15.308 14.829 18.399l0.163 0.058c2.281 0.998 4.938 1.579 7.732 1.579 6.192 0 11.717-2.853 15.334-7.315l0.029-0.037 251.54-238.837c4.852-3.976 7.925-9.97 7.925-16.68 0-2.312-0.365-4.537-1.039-6.624l0.043 0.152zM161.254 643.342l188.068 178.849-39.184 9.219c-9.049 1.945-15.955 9.235-17.307 18.336l-0.015 0.121-6.928 39.223-188.068-178.849 39.223-9.238c9.049-1.945 15.955-9.235 17.307-18.336l0.015-0.121zM858.156 584.49l-240.088 228.445h-212.202l-240.069-228.426v-579.292c0-12.755 10.34-23.095 23.095-23.095v0h646.19c12.755 0 23.095 10.34 23.095 23.095v0zM926.227 710.259l-188.068 178.849-6.928-39.223c-1.773-9.028-8.488-16.122-17.156-18.42l-0.165-0.037-39.223-9.238 188.068-178.849 6.928 39.223c1.773 9.028 8.488 16.122 17.156 18.42l0.165 0.037zM615.854 624.886c3.25 2.173 7.247 3.468 11.547 3.468s8.297-1.295 11.623-3.516l-0.076 0.048c6.935-3.877 11.547-11.176 11.547-19.551 0-0.021 0-0.042 0-0.063v0.003-253.849c0-0.018 0-0.039 0-0.060 0-8.375-4.611-15.673-11.434-19.493l-0.113-0.058c-3.25-2.173-7.247-3.468-11.547-3.468s-8.297 1.295-11.623 3.516l0.076-0.048-109.7 65.762h-28.868v-46.189c0-12.755-10.34-23.095-23.095-23.095s-23.095 10.34-23.095 23.095v0 46.189h-34.642c-12.755 0-23.095 10.34-23.095 23.095v0 115.474c0 12.755 10.34 23.095 23.095 23.095h109.7zM488.93 512.973h-69.284v-69.284h69.284zM604.403 563.743l-69.284-41.532v-88.837l69.284-41.532z" />
<glyph unicode="&#xe92e;" glyph-name="business-card" d="M1003.213 757.724h-982.432c-11.475 0-20.777-9.302-20.777-20.777v0-577.881c0-11.475 9.302-20.777 20.777-20.777v0h982.432c11.475 0 20.777 9.302 20.777 20.777v0 577.897c-0.009 11.468-9.308 20.761-20.777 20.761v0zM982.436 179.827h-940.893v536.375h940.893zM151.854 310.452c37.714-42.108 92.252-68.482 152.949-68.482 60.803 0 115.424 26.466 152.973 68.506l0.175 0.2c1.195 1.062 2.248 2.242 3.153 3.531l0.043 0.065c30.826 35.802 49.598 82.749 49.598 134.081 0 113.788-92.243 206.031-206.031 206.031s-206.031-92.243-206.031-206.031c0-51.258 18.718-98.143 49.691-134.195l-0.23 0.273c1.078-1.512 2.3-2.82 3.673-3.952l0.035-0.028zM190.756 329.711c23.94 38.541 66.040 63.82 114.043 63.82s90.104-25.279 113.714-63.251l0.329-0.569c-29.456-28.589-69.691-46.214-114.043-46.214s-84.588 17.625-114.085 46.253l0.041-0.039zM260.217 479.691c0 24.645 19.979 44.623 44.623 44.623s44.623-19.979 44.623-44.623c0-24.645-19.979-44.623-44.623-44.623v0c-24.616 0.073-44.551 20.008-44.623 44.616v0.007zM304.84 612.538c0.097 0 0.212 0.001 0.328 0.001 90.67 0 164.173-73.503 164.173-164.173 0-31.235-8.723-60.432-23.865-85.289l0.41 0.725c-19.525 26.013-45.475 46.208-75.529 58.391l-1.187 0.425c13.53 15.151 21.8 35.251 21.8 57.284 0 47.586-38.576 86.162-86.162 86.162s-86.162-38.576-86.162-86.162c0-22.032 8.27-42.133 21.874-57.368l-0.074 0.084c-31.243-12.612-57.194-32.812-76.388-58.375l-0.328-0.457c-14.738 24.136-23.464 53.339-23.464 84.58 0 90.67 73.503 164.173 164.173 164.173 0.119 0 0.237 0 0.356-0.001h-0.018zM615.508 592.289h288.949c11.475 0 20.777 9.302 20.777 20.777s-9.302 20.777-20.777 20.777v0h-288.949c-11.475 0-20.777-9.302-20.777-20.777s9.302-20.777 20.777-20.777v0zM615.508 262.169h288.949c11.475 0 20.777 9.302 20.777 20.777s-9.302 20.777-20.777 20.777v0h-288.949c-11.475 0-20.777-9.302-20.777-20.777s9.302-20.777 20.777-20.777v0zM615.508 372.192h246.291c11.475 0 20.777 9.302 20.777 20.777s-9.302 20.777-20.777 20.777v0h-246.291c-11.475 0-20.777-9.302-20.777-20.777s9.302-20.777 20.777-20.777v0zM615.508 482.233h177.503c11.475 0 20.777 9.302 20.777 20.777s-9.302 20.777-20.777 20.777v0h-177.503c-11.475 0-20.777-9.302-20.777-20.777s9.302-20.777 20.777-20.777v0z" />
<glyph unicode="&#xe92f;" glyph-name="badge" d="M851.59 959.989h-679.188c-21.643 0-39.188-17.545-39.188-39.188v0-945.625c0.022-21.626 17.559-39.148 39.188-39.148 8.866 0 17.045 2.945 23.611 7.909l-0.099-0.071 316.081 242.905 316.081-241.625c6.472-4.903 14.658-7.853 23.534-7.853 21.191 0 38.454 16.821 39.165 37.839l0.002 0.065v945.605c0 21.643-17.545 39.188-39.188 39.188v0z" />
<glyph unicode="&#xe930;" glyph-name="social-media" d="M998.68 73.808h-24.742v635.633c-0.251 13.608-9.384 25.016-21.834 28.688l-0.216 0.055c3.154 6.423 5.015 13.975 5.056 21.957v148.059c-0.098 28.552-23.204 51.675-51.741 51.8h-163.807c-28.599-0.080-51.76-23.247-51.832-51.84v-148.052c0.001-7.355 1.542-14.35 4.319-20.679l-0.129 0.331h-52.21c2.638 5.99 4.174 12.974 4.174 20.316 0 0.011 0 0.023 0 0.034v-0.002 148.045c-0.071 28.589-23.215 51.749-51.791 51.847h-163.804c-28.599-0.080-51.76-23.247-51.832-51.84v-148.052c0-0.010 0-0.021 0-0.032 0-7.342 1.536-14.326 4.303-20.647l-0.129 0.331h-52.225c2.647 5.999 4.188 12.993 4.189 20.348v0 148.045c-0.071 28.6-23.233 51.767-51.824 51.847h-163.755c-28.599-0.080-51.76-23.247-51.832-51.84v-148.052c0.043-7.991 1.904-15.536 5.19-22.258l-0.134 0.304c-12.667-3.733-21.8-15.146-22.049-28.73v-635.615h-24.664c0 0-0.001 0-0.001 0-8.698 0-15.749-7.051-15.749-15.749 0-1.687 0.265-3.312 0.756-4.836l-0.031 0.111 18.726-59.36c10.788-33.861 41.961-57.958 78.762-57.958 0.067 0 0.134 0 0.2 0h807.939c0.056 0 0.123 0 0.19 0 36.801 0 67.974 24.097 78.601 57.374l0.161 0.584 18.726 59.344c0.46 1.412 0.725 3.038 0.725 4.725 0 8.698-7.051 15.749-15.749 15.749 0 0-0.001 0-0.001 0v0zM721.111 908.153c0 11.233 9.101 20.339 20.332 20.348h163.795c11.231-0.009 20.333-9.116 20.333-20.348v0-148.045c0-11.233-9.101-20.339-20.332-20.348h-163.795c-11.231 0.009-20.333 9.116-20.333 20.348v0zM409.822 908.153c0 0 0 0 0 0 0 11.221 9.083 20.321 20.298 20.348h163.798c11.231-0.009 20.333-9.116 20.333-20.348v0-148.045c-0.045-11.199-9.129-20.261-20.332-20.27h-163.795c-11.231 0.009-20.333 9.116-20.333 20.348v0zM98.518 908.153c0 11.233 9.101 20.339 20.332 20.348h163.795c11.231-0.009 20.333-9.116 20.333-20.348v0-148.045c0-11.233-9.101-20.339-20.332-20.348h-163.795c-11.231 0.009-20.333 9.116-20.333 20.348v0zM81.745 708.339c1075.847 1.465 820.863 1.291 860.694 1.134v-635.633h-860.914zM575.711 42.309v-5.906c0-8.698-7.051-15.749-15.749-15.749v0h-95.883c-8.698 0-15.749 7.051-15.749 15.749v0 5.906zM964.866 3.439c-6.672-20.995-25.993-35.94-48.805-35.94-0.007 0-0.013 0-0.020 0h-807.963c-0.029 0-0.063 0-0.097 0-22.812 0-42.132 14.945-48.705 35.578l-0.1 0.362-12.253 38.87h369.908v-5.906c0-26.095 21.154-47.248 47.248-47.248v0h95.883c26.095 0 47.248 21.154 47.248 47.248v0 5.906h369.908zM492.838 282.835c0.005 0 0.010 0 0.016 0 87.269 0 158.015 70.746 158.015 158.015s-70.746 158.015-158.015 158.015c-87.269 0-158.015-70.746-158.015-158.015 0-0.006 0-0.011 0-0.017v0.001c0.099-87.221 70.778-157.9 157.989-157.999h0.009zM613.132 479.814c3.934-11.676 6.204-25.123 6.204-39.1 0-61.11-43.398-112.085-101.055-123.786l-0.811-0.137c38.145 91.772 45.847 104.214 45.847 124.043 0 0.011 0 0.024 0 0.037 0 14.519-4.419 28.006-11.985 39.19l0.157-0.247zM492.838 401.886c-21.519 0-38.964 17.445-38.964 38.964s17.445 38.964 38.964 38.964v0c51.643 0 51.328-77.928 0-77.928zM492.838 567.365c43.57-0.018 81.987-22.066 104.718-55.608l0.284-0.444h-105.002c-22.091-0.083-41.761-10.38-54.542-26.412l-0.109-0.142-21.703 56.698c20.914 16.15 47.494 25.892 76.35 25.908h0.004zM392.041 517.061l30.743-80.086c1.823-37.128 32.369-66.541 69.786-66.541 4.843 0 9.572 0.493 14.138 1.431l-0.451-0.077-23.624-56.871c-65.26 5.326-116.204 59.601-116.204 125.775 0 28.868 9.695 55.472 26.008 76.733l-0.221-0.3zM868.794 672.651h-713.625c-0.19 0.004-0.414 0.007-0.638 0.007-16.918 0-30.679-13.513-31.080-30.334l-0.001-0.037v-532.616h777.064v532.616c-0.402 16.859-14.163 30.372-31.081 30.372-0.224 0-0.448-0.002-0.672-0.007l0.033 0.001zM661.971 141.169h-299.902v74.763h299.902zM869.014 141.169h-175.544v106.262h-362.9v-106.262h-175.623l0.22 499.983 713.845 1.134zM379.268 205.6h31.499v-54.099h-31.499zM823.325 759.84c0.005 0 0.010 0 0.016 0 36.689 0 66.431 29.742 66.431 66.431s-29.742 66.431-66.431 66.431c-36.689 0-66.431-29.742-66.431-66.431 0-0.006 0-0.011 0-0.017v0.001c0.036-36.666 29.75-66.38 66.412-66.416h0.003zM823.325 861.188c0.005 0 0.010 0 0.016 0 19.293 0 34.932-15.64 34.932-34.932s-15.64-34.932-34.932-34.932c-19.293 0-34.932 15.64-34.932 34.932v0c0 0.005 0 0.010 0 0.016 0 19.29 15.629 34.93 34.915 34.948h0.002zM900.938 881.646c2.821 2.88 4.562 6.828 4.562 11.182s-1.741 8.302-4.565 11.185l0.003-0.003c-2.9 2.709-6.808 4.372-11.103 4.372s-8.203-1.663-11.113-4.381l0.009 0.009c-2.924-2.833-4.74-6.795-4.74-11.182s1.815-8.35 4.736-11.178l0.004-0.004c2.847-2.83 6.771-4.58 11.103-4.58s8.257 1.749 11.104 4.581l-0.001-0.001zM465.276 755.95c1.993-0.979 4.338-1.552 6.817-1.552 3.74 0 7.175 1.303 9.877 3.481l79.82 63.919c3.606 2.911 5.894 7.33 5.894 12.285s-2.287 9.374-5.864 12.261l-0.030 0.023-79.85 64.116c-2.673 2.16-6.114 3.468-9.859 3.468-8.698 0-15.749-7.051-15.749-15.749 0-0.007 0-0.013 0-0.020v0.001-128.028c0-0.001 0-0.001 0-0.002 0-6.225 3.611-11.606 8.852-14.163l0.093-0.041zM487.845 865.361l38.933-31.263-38.933-31.152zM183.234 803.434q0-32.003 30.822-32.019c0.747-0.046 1.62-0.073 2.5-0.073 6.138 0 11.975 1.284 17.259 3.598l-0.277-0.108v21.593c-2.711-1.599-5.956-2.582-9.422-2.677l-0.027-0.001q-11.718 0-11.718 14.757v38.208h21.23v21.498h-21.293v28.648l-29.074-8.316v-20.333h-15.324v-21.498h15.324z" />
<glyph unicode="&#xe931;" glyph-name="blog" d="M549.061 722.567h129.218c-16.305-18.081-26.279-42.146-26.279-68.541 0-0.040 0-0.082 0-0.122v0.007-411.729c-1.122-37.041-31.418-66.642-68.628-66.642s-67.506 29.601-68.625 66.538l-0.003 0.103v669.111c0 9.473-7.68 17.152-17.152 17.152v0h-480.386c-9.473 0-17.152-7.68-17.152-17.152v0-669.111c0.040-56.861 46.125-102.945 102.982-102.985h480.343c56.861 0.040 102.945 46.125 102.985 102.982v411.756c-0.019 0.6-0.030 1.307-0.030 2.015 0 37.918 30.739 68.657 68.657 68.657s68.657-30.739 68.657-68.657c0-0.708-0.010-1.415-0.032-2.119l0.003 0.103v-377.436h-34.328v-34.328h51.469c9.473 0 17.152 7.68 17.152 17.152v0 394.613c-0.040 56.861-46.125 102.945-102.982 102.985h-205.868zM103.038 173.56c-37.918 0-68.657 30.739-68.657 68.657v0 651.899h446.058v-651.934c0-0.035 0-0.075 0-0.116 0-26.395 9.974-50.461 26.36-68.632l-0.081 0.091zM85.827 688.262h240.193c9.473 0 17.152 7.68 17.152 17.152v0 137.255c0 9.473-7.68 17.152-17.152 17.152v0h-240.193c-9.473 0-17.152-7.68-17.152-17.152v0-137.255c0-9.473 7.68-17.152 17.152-17.152v0zM103.002 825.495h205.865v-102.985h-205.865zM85.827 516.679h171.572c9.473 0 17.152 7.68 17.152 17.152v0 102.985c-0.021 9.457-7.692 17.117-17.152 17.117 0 0 0 0 0 0h-171.572c-9.473 0-17.152-7.68-17.152-17.152v0-102.985c0.021-9.457 7.692-17.117 17.152-17.117 0 0 0 0 0 0v0zM102.979 619.665h137.255v-68.657h-137.231zM343.338 654.254h106.537v-35.512h-106.537zM307.825 583.218h71.025v-35.512h-71.025zM414.363 583.218h35.512v-35.512h-35.512zM106.589 476.681h118.374v-23.675h-118.374zM260.476 476.681h189.398v-23.675h-189.398zM71.077 417.494h71.025v-35.512h-71.025zM177.614 417.494h236.749v-35.512h-236.749zM377.5 345.12h-205.888c-9.473 0-17.152-7.68-17.152-17.152v0-102.985c0-9.473 7.68-17.152 17.152-17.152v0h205.877c9.473 0 17.152 7.68 17.152 17.152v0 102.985c0 9.469-7.673 17.145-17.14 17.152h-0.001zM360.348 242.134h-171.56v68.657h171.56zM142.101 784.454h35.512v-35.512h-35.512zM213.126 784.454h59.187v-35.512h-59.187zM378.85 855.49h71.025v-35.512h-71.025zM378.85 784.454h71.025v-35.512h-71.025zM722.135 275.456h35.512v-35.512h-35.512zM1011.49 516.005c-9.484 10.952-23.408 17.839-38.941 17.839-0.009 0-0.020 0-0.029 0h-80.327v-34.328h17.152c9.473 0 17.152-7.68 17.152-17.152 0-0.004 0-0.008 0-0.012v0.001c-0.001-0.887-0.069-1.756-0.202-2.605l0.012 0.095-58.453-394.636c-1.31-8.312-8.402-14.599-16.97-14.643h-502.243c-0.003 0-0.006 0-0.008 0-9.473 0-17.152 7.68-17.152 17.152 0 0.889 0.068 1.764 0.198 2.617l-0.012-0.096 1.8 12.133-33.949 5.031-1.8-12.133c-0.358-2.282-0.564-4.913-0.564-7.592 0-6.133 1.074-12.017 3.044-17.471l-0.113 0.358h-248.586c-28.439 0-51.493-23.055-51.493-51.493s23.055-51.493 51.493-51.493v0h857.846c0.016 0 0.035 0 0.053 0 28.4 0 51.421 23.023 51.421 51.421 0 12.063-4.154 23.155-11.109 31.926l0.082-0.107c7.911 7.604 13.378 17.7 15.139 29.022l0.037 0.288 58.453 394.601c0.365 2.302 0.574 4.958 0.574 7.661 0 12.881-4.735 24.656-12.56 33.68l0.054-0.064zM34.381 19.153c0.013 9.468 7.685 17.139 17.151 17.152h380.384c-1.872-5.111-2.955-11.011-2.955-17.164s1.083-12.054 3.068-17.522l-0.114 0.357h-380.396c-9.471 0.021-17.141 7.702-17.141 17.176 0 0 0 0 0 0v0zM909.368 2h-428.929c-9.48 0-17.164 7.685-17.164 17.164s7.685 17.164 17.164 17.164v0h428.906c9.48 0 17.164-7.685 17.164-17.164s-7.685-17.164-17.164-17.164v0zM989.508 479.865l-58.477-394.66c-1.31-8.312-8.402-14.599-16.97-14.643h-14.695c1.025 2.744 1.872 5.982 2.391 9.328l0.037 0.284 58.453 394.601c0.358 2.282 0.564 4.913 0.564 7.592 0 6.133-1.074 12.017-3.044 17.471l0.113-0.358h14.654c0.003 0 0.006 0 0.008 0 9.473 0 17.152-7.68 17.152-17.152 0-0.889-0.068-1.764-0.198-2.617l0.012 0.096z" />
<glyph unicode="&#xe932;" glyph-name="promotion" d="M184.437 227.432c0.025 0 0.056 0 0.086 0 4.859 0 9.323 1.695 12.83 4.527l-0.039-0.030 382.73 300.768c7.994 6.4 13.070 16.159 13.070 27.102 0 6.266-1.664 12.144-4.575 17.216l0.089-0.169-39.652 69.392c-4.719 8.153-13.4 13.551-23.341 13.551-8.088 0-15.342-3.573-20.269-9.226l-0.028-0.032-336.64-388.352c-3.57-3.676-5.771-8.698-5.771-14.234 0-11.289 9.151-20.439 20.439-20.439 0.377 0 0.75 0.010 1.121 0.030l-0.052-0.003zM524.96 626.003l36.995-64.793c0.307-0.534 0.489-1.176 0.489-1.859 0-1.186-0.546-2.245-1.402-2.939l-302.308-237.206zM498.081 194.83c-2.515 1.878-5.684 3.006-9.117 3.006-0.968 0-1.915-0.089-2.833-0.261l0.095 0.014-149.311-27.594c-7.052-1.472-12.274-7.637-12.274-15.022 0-2.822 0.763-5.467 2.094-7.738l-0.039 0.073 10.22-18.702c11.788-20.499 30.93-35.645 53.743-41.957l0.626-0.148c7.118-2.012 15.292-3.169 23.737-3.169 0.026 0 0.053 0 0.079 0h-0.004c16.327 0.013 31.623 4.412 44.777 12.083l-0.424-0.228c27.231 15.751 45.258 44.737 45.258 77.934 0 3.942-0.254 7.825-0.747 11.632l0.047-0.45c-0.48 4.309-2.681 8.027-5.891 10.499l-0.035 0.026zM444.428 121.862c-8.431-4.888-18.549-7.772-29.341-7.772-21.868 0-40.969 11.842-51.243 29.462l-0.152 0.282 109.863 20.439c-2.856-18.26-13.731-33.512-28.842-42.26l-0.284-0.152zM91.845 65.039c8.468-15.433 24.607-25.72 43.149-25.72 27.092 0 49.055 21.962 49.055 49.055 0 7.797-1.819 15.168-5.056 21.714l0.128-0.287 82.269 15.125 17.067-29.842c27.608-47.734 78.418-79.335 136.609-79.335 86.865 0 157.282 70.418 157.282 157.282 0 3.283-0.1 6.541-0.299 9.773l0.022-0.444 222.382 40.879 11.855-20.439c8.623-14.875 24.471-24.72 42.617-24.72 27.114 0 49.095 21.98 49.095 49.095 0 8.968-2.405 17.374-6.604 24.609l0.126-0.235-318.346 556.365c-8.623 14.875-24.471 24.72-42.617 24.72-27.114 0-49.095-21.98-49.095-49.095 0-8.968 2.405-17.374 6.604-24.609l-0.126 0.235 8.891-15.534-410.426-473.38c-9.054 10.6-22.433 17.277-37.37 17.277-27.092 0-49.055-21.962-49.055-49.055 0-9.409 2.649-18.199 7.242-25.666l-0.122 0.213zM40.645 253.901c2.628 1.535 5.787 2.441 9.156 2.441 6.789 0 12.719-3.678 15.906-9.149l0.047-0.088 5.519-9.606c2.686-4.671 7.648-7.765 13.333-7.765 4.627 0 8.776 2.051 11.587 5.293l0.016 0.019 430.897 496.835c2.339 2.676 3.765 6.203 3.765 10.062 0 2.803-0.752 5.43-2.066 7.691l0.040-0.073-14.206 24.937c-1.528 2.627-2.431 5.782-2.431 9.147 0 10.175 8.249 18.425 18.425 18.425 6.811 0 12.758-3.695 15.947-9.19l0.047-0.089 318.243-556.978c1.528-2.627 2.431-5.782 2.431-9.147 0-10.175-8.249-18.425-18.425-18.425-6.811 0-12.758 3.695-15.947 9.19l-0.047 0.089-17.271 30.148c-2.694 4.638-7.639 7.708-13.301 7.708-0.97 0-1.919-0.090-2.839-0.263l0.095 0.015-247.012-45.376c-6.973-1.535-12.113-7.662-12.113-14.988 0-0.769 0.057-1.526 0.166-2.264l-0.010 0.084c0.887-5.631 1.394-12.125 1.394-18.737 0-69.932-56.691-126.623-126.623-126.623-46.739 0-87.564 25.323-109.501 62.998l-0.324 0.604-22.483 39.244c-2.678 4.658-7.619 7.749-13.283 7.767h-2.762l-114.768-21.768c-7.052-1.472-12.274-7.637-12.274-15.022 0-2.822 0.763-5.467 2.094-7.738l-0.039 0.073 8.482-14.819c1.433-2.566 2.277-5.63 2.277-8.89 0-10.216-8.282-18.498-18.498-18.498-6.706 0-12.579 3.569-15.823 8.911l-0.046 0.082-84.722 148.289c-1.579 2.667-2.511 5.877-2.511 9.306 0 6.789 3.657 12.723 9.109 15.941l0.086 0.047zM792.411 525.747c3.709-1.038 7.967-1.635 12.366-1.635 0.036 0 0.072 0 0.108 0h-0.006c0.263-0.005 0.573-0.008 0.884-0.008 8.221 0 15.946 2.124 22.655 5.853l-0.238-0.122 110.986 63.464c13.418 8.458 22.202 23.197 22.202 39.988 0 26.020-21.093 47.113-47.113 47.113-7.966 0-15.47-1.977-22.048-5.467l0.255 0.123-111.089-63.464c-14.29-8.271-23.75-23.487-23.75-40.913 0-21.598 14.533-39.802 34.354-45.365l0.332-0.079zM796.601 585.43l110.782 63.362c2.177 1.135 4.752 1.801 7.485 1.801 9.087 0 16.454-7.366 16.454-16.454 0-5.795-2.996-10.89-7.523-13.822l-0.064-0.039-110.782-63.362c-2.331-1.342-5.125-2.133-8.104-2.133-6.075 0-11.382 3.29-14.235 8.186l-0.042 0.079c-1.279 2.285-2.032 5.016-2.032 7.922 0 5.991 3.202 11.234 7.988 14.111l0.074 0.041zM736.1 609.242h3.577c13.311 1.087 24.916 7.594 32.736 17.284l0.070 0.089 81.758 102.197c5.853 7.718 9.377 17.482 9.377 28.070 0 25.794-20.91 46.705-46.705 46.705-14.256 0-27.019-6.387-35.586-16.455l-0.055-0.066-81.758-102.197c-6.303-7.891-10.114-18.013-10.114-29.025 0-25.756 20.849-46.644 46.592-46.704h0.006zM723.53 665.86l81.758 102.197c2.693 3.359 6.677 5.587 11.189 5.924l0.053 0.003h1.329c0.002 0 0.004 0 0.006 0 4.144 0 7.915-1.593 10.735-4.199l-0.011 0.009c3.2-2.941 5.197-7.147 5.197-11.818 0-3.774-1.304-7.243-3.485-9.983l0.025 0.033-81.758-102.197c-2.965-3.673-7.468-6.003-12.514-6.003-3.814 0-7.318 1.331-10.071 3.554l0.030-0.024-0.746 0.633c-3.133 2.937-5.085 7.102-5.085 11.723 0 3.77 1.299 7.236 3.475 9.976l-0.025-0.033zM965.943 533.412l-129.587-18.396c-24.981-1.026-44.846-21.527-44.846-46.668 0-25.794 20.91-46.705 46.705-46.705 4.022 0 7.925 0.508 11.649 1.464l-0.324-0.071 129.587 18.396c24.981 1.026 44.846 21.527 44.846 46.668 0 25.794-20.91 46.705-46.705 46.705-4.022 0-7.925-0.508-11.649-1.464l0.324 0.071zM988.222 490.591c0.22-0.997 0.346-2.142 0.346-3.315 0-7.677-5.392-14.095-12.596-15.673l-1.128-0.203-129.587-18.396c-0.621-0.085-1.341-0.134-2.070-0.134-8.867 0-16.056 7.188-16.056 16.056 0 7.642 5.338 14.036 12.489 15.658l0.107 0.020 1.022 0.184 129.076 18.273h2.248c0.144 0.004 0.312 0.008 0.481 0.008 7.632 0 14.020-5.329 15.645-12.47l0.020-0.107zM42.688 503.059c16.094-7.528 34.767-13.119 54.362-15.827l1.029-0.117h1.431v-21.462c-0.029-0.463-0.045-1.003-0.045-1.548 0-14.186 11.074-25.786 25.051-26.625l0.074-0.003c0.361-0.019 0.782-0.030 1.206-0.030s0.846 0.011 1.265 0.033l-0.058-0.003h29.638c0.194-0.005 0.423-0.008 0.652-0.008 14.275 0 25.89 11.388 26.256 25.575l0.001 0.034v29.454h0.919c23.476 6.369 43.306 19.483 57.865 37.112l0.153 0.19c14.928 17.833 23.994 41.017 23.994 66.319 0 6.834-0.661 13.513-1.923 19.977l0.106-0.654c-6.66 32.806-27.171 59.825-55.025 75.135l-0.571 0.287c-12.483 6.762-27.832 13.84-43.628 20.027l-2.974 1.026-6.132 2.555c-9.136 3.579-17.029 8.087-24.143 13.557l0.229-0.169c-2.906 1.835-4.808 5.030-4.808 8.67 0 0.114 0.002 0.227 0.006 0.34l-0.001-0.016c0.948 3.744 3.714 6.678 7.28 7.847l0.078 0.022c3.451 1.385 7.448 2.206 11.633 2.248h0.017c2.234 0.16 4.84 0.251 7.468 0.251 17.938 0 34.886-4.244 49.893-11.784l-0.64 0.291c4.138-2.489 9.133-3.962 14.472-3.962 3.271 0 6.411 0.552 9.336 1.57l-0.199-0.060c7.252 3.825 12.563 10.508 14.473 18.51l0.039 0.192c2.555 7.972 4.905 16.045 7.154 24.016l2.861 10.22c0.9 2.577 1.419 5.546 1.419 8.638 0 11.522-7.219 21.358-17.381 25.23l-0.185 0.062c-12.744 5.864-27.55 10.422-43.039 12.945l-1.009 0.136-5.314 0.817v5.314c0 34.134-7.051 40.879-40.879 40.879h-12.264c-20.439-0.613-28.819-9.198-29.331-29.638v-21.87l-5.519-2.044c-45.171-16.454-70.517-48.749-73.276-93.613-2.555-38.733 15.125-69.801 53.654-92.693 11.778-6.829 25.62-13.398 40.009-18.856l1.994-0.664q8.891-3.526 17.782-7.358c6.715-2.79 12.509-6.222 17.737-10.34l-0.159 0.121c4.111-2.792 6.776-7.446 6.776-12.722 0-0.343-0.011-0.682-0.033-1.019l0.003 0.046c-1.158-5.358-5.051-9.591-10.114-11.212l-0.106-0.030c-6.249-2.705-13.525-4.278-21.169-4.278-2.844 0-5.637 0.218-8.364 0.637l0.305-0.039c-18.994 2.232-36.271 7.688-51.932 15.825l0.832-0.393c-4.359 2.881-9.708 4.595-15.459 4.595-3.057 0-6-0.485-8.758-1.381l0.2 0.057c-7.531-3.993-12.995-11.034-14.785-19.434l-0.034-0.188c-3.168-10.22-5.928-20.439-8.687-30.148-5.826-20.644-1.022-31.17 18.293-40.573zM53.828 535.456c2.35 8.585 4.701 17.067 7.256 25.652 16.974-8.385 36.702-14.341 57.503-16.782l0.852-0.081c3.544-0.523 7.637-0.821 11.797-0.821 12.096 0 23.604 2.52 34.026 7.063l-0.55-0.214c16.552 6.653 28.025 22.571 28.025 41.169 0 14.473-6.948 27.323-17.691 35.397l-0.114 0.082c-7.13 5.725-15.282 10.63-24.054 14.359l-0.677 0.256c-6.132 2.759-12.366 5.212-18.702 7.767-14.617 5.528-26.94 11.407-38.696 18.16l1.292-0.684c-28.207 16.863-40.879 37.404-39.039 64.385 1.942 32.601 19.315 54.369 53.858 66.94 20.439 7.665 24.937 13.286 25.039 35.667v16.147h20.951v-10.22c0-25.856 5.621-32.295 31.272-36.28 13.058-2.105 24.773-5.665 35.748-10.58l-0.899 0.36-2.248-7.87c-1.84-6.541-3.679-13.081-5.723-19.52-17.39 8.103-37.754 12.831-59.221 12.831-3.039 0-6.056-0.095-9.048-0.281l0.409 0.020c-8.083-0.224-15.709-1.931-22.697-4.856l0.417 0.155c-15.241-5.94-25.844-20.501-25.844-37.538 0-13.351 6.512-25.182 16.532-32.49l0.115-0.079c9.030-6.902 19.39-12.756 30.514-17.079l0.861-0.295 6.234-2.555c17.231-6.724 31.296-13.282 44.899-20.589l-2.18 1.070c20.426-11.287 35.161-30.749 39.872-53.857l0.087-0.512c0.854-4.165 1.344-8.952 1.344-13.852 0-17.699-6.38-33.906-16.967-46.45l0.089 0.107c-10.746-13.015-25.248-22.579-41.84-27.053l-0.572-0.132c-13.563-2.717-23.638-14.531-23.638-28.697 0-0.979 0.048-1.946 0.142-2.9l-0.009 0.121v-23.097h-22.381v17.476c0 21.87-6.132 28.717-27.389 32.090-17.405 2.279-33.195 6.945-47.821 13.706l1.014-0.42-3.066 1.533c0.204 0.919 0.511 1.942 0.919 3.271z" />
<glyph unicode="&#xe933;" glyph-name="marketing" d="M619.327 530.11l57.121-17.412c1.396-0.446 3.002-0.704 4.668-0.704 0.001 0 0.002 0 0.002 0v0c8.772 0.088 15.849 7.219 15.849 16.004 0 7.119-4.648 13.153-11.075 15.231l-0.113 0.031-3.84 1.173c9.474 2.694 17.755 6.549 25.253 11.494l-0.338-0.209c14.092 9.874 26.339 19.573 37.997 29.921l-0.428-0.373c9.302 7.934 18.086 15.438 27.925 22.649 14.691 10.116 32.87 16.156 52.459 16.156 2.49 0 4.957-0.097 7.398-0.289l-0.323 0.020h0.107v5.628c0.034 9.267 1.461 18.187 4.080 26.581l-0.172-0.639c-0.708 0.175-1.546 0.307-2.403 0.369l-0.050 0.003c-2.637 0.199-5.712 0.312-8.814 0.312-26.66 0-51.367-8.368-71.636-22.619l0.397 0.264c-10.748-7.915-20.441-16.151-29.772-24.114-10.378-9.235-21.688-18.215-33.487-26.548l-1.209-0.81c-4.936-3.197-10.658-5.753-16.763-7.362l-0.414-0.093 1.817 2.022c2.527 2.817 4.072 6.561 4.072 10.665 0 8.838-7.165 16.002-16.002 16.002-4.734 0-8.988-2.056-11.917-5.322l-0.013-0.015-37.667-42.093c-2.526-2.817-4.071-6.56-4.071-10.664 0-7.171 4.717-13.241 11.217-15.276l0.113-0.031zM96.006 432h383.997c17.651 0.055 31.945 14.349 32 31.995v96.005c-0.055 17.651-14.349 31.945-31.995 32h-384.003c-17.651-0.055-31.945-14.349-32-31.995v-96.005c0.055-17.651 14.349-31.945 31.995-32h0.005zM96.006 559.999h383.997v-95.999h-383.997zM96.006 272.001h63.999c17.651 0.055 31.945 14.349 32 31.995v64.005c-0.055 17.651-14.349 31.945-31.995 32h-64.005c-17.651-0.055-31.945-14.349-32-31.995v-64.005c0.055-17.651 14.349-31.945 31.995-32h0.005zM96.006 368h63.999v-63.999h-63.999zM320.005 400h-63.999c-17.651-0.055-31.945-14.349-32-31.995v-64.005c0.055-17.651 14.349-31.945 31.995-32h64.005c17.651 0.055 31.945 14.349 32 31.995v64.005c-0.055 17.651-14.349 31.945-31.995 32h-0.005zM320.005 304.001h-63.999v63.999h63.999zM480.004 400h-63.999c-17.651-0.055-31.945-14.349-32-31.995v-64.005c0.055-17.651 14.349-31.945 31.995-32h64.005c17.651 0.055 31.945 14.349 32 31.995v64.005c-0.055 17.651-14.349 31.945-31.995 32h-0.005zM480.004 304.001h-63.999v63.999h63.999zM512.004 751.998h-447.997c-35.304-0.105-63.894-28.696-63.999-63.989v-480.007c0.105-35.304 28.696-63.894 63.989-63.999h448.007c35.304 0.105 63.894 28.696 63.999 63.989v480.007c-0.105 35.304-28.696 63.894-63.989 63.999h-0.010zM544.003 208.001c-0.017-17.666-14.334-31.983-31.998-32h-447.998c-17.666 0.017-31.983 14.334-32 31.998v415.999h511.997zM544.003 655.999h-511.997v32c0.017 17.666 14.334 31.983 31.998 32h447.998c17.666-0.017 31.983-14.334 32-31.998v-0.002zM449.47 686.289c0-8.095-6.562-14.657-14.657-14.657s-14.657 6.562-14.657 14.657c0 8.095 6.562 14.657 14.657 14.657s14.657-6.562 14.657-14.657zM508.095 686.289c0-8.095-6.562-14.657-14.657-14.657s-14.657 6.562-14.657 14.657c0 8.095 6.562 14.657 14.657 14.657s14.657-6.562 14.657-14.657zM80.002 208.001h95.999c0.118-0.003 0.256-0.005 0.395-0.005 8.839 0 16.005 7.165 16.005 16.005s-7.165 16.005-16.005 16.005c-0.139 0-0.278-0.002-0.416-0.005l0.020 0.001h-95.999c-8.668-0.221-15.61-7.3-15.61-16s6.942-15.779 15.589-16l0.020-0.001zM336.010 240.001h-96.009c-8.668-0.221-15.61-7.3-15.61-16s6.942-15.779 15.589-16l0.020-0.001h95.999c0.118-0.003 0.256-0.005 0.395-0.005 8.839 0 16.005 7.165 16.005 16.005s-7.165 16.005-16.005 16.005c-0.139 0-0.278-0.002-0.416-0.005l0.020 0.001zM496.009 240.001h-96.009c-8.668-0.221-15.61-7.3-15.61-16s6.942-15.779 15.589-16l0.020-0.001h95.999c8.668 0.221 15.61 7.3 15.61 16s-6.942 15.779-15.589 16l-0.020 0.001zM772.35 256.035c-9.84 7.201-18.623 14.657-27.925 22.639-11.231 9.974-23.477 19.673-36.255 28.67l-1.315 0.878c-7.169 4.732-15.461 8.584-24.309 11.12l-0.637 0.156 3.909 1.182c6.779 1.961 11.651 8.112 11.651 15.401 0 8.839-7.165 16.005-16.005 16.005-1.779 0-3.491-0.29-5.091-0.826l0.113 0.033-57.121-17.412c-6.614-2.066-11.33-8.136-11.33-15.307 0-4.103 1.544-7.846 4.084-10.679l-0.013 0.015 37.667-42.093c2.943-3.282 7.197-5.337 11.93-5.337 8.838 0 16.002 7.165 16.002 16.002 0 4.104-1.545 7.848-4.085 10.68l0.013-0.015-1.769 1.954c6.5-1.695 12.205-4.235 17.365-7.549l-0.237 0.142c12.986-9.156 24.283-18.151 35.039-27.742l-0.381 0.334c9.331-7.963 18.995-16.2 29.772-24.105 19.769-14.019 44.388-22.41 70.967-22.41 0.683 0 1.365 0.005 2.046 0.017l-0.103-0.001c1.876 0 3.771 0.244 5.667 0.313v29.313c0 0.889 0.117 1.749 0.147 2.629-2.114-0.17-4.578-0.267-7.064-0.267-19.695 0-37.97 6.081-53.049 16.467l0.315-0.205zM753.414 462.778c-19.241-9.443-41.876-14.965-65.801-14.965-3.864 0-7.694 0.144-11.485 0.427l0.506-0.030 3.332 1.954c4.639 2.858 7.685 7.909 7.685 13.673 0 8.839-7.165 16.005-16.005 16.005-2.783 0-5.401-0.711-7.681-1.96l0.083 0.042-47.995-27.505c-4.838-2.816-8.039-7.978-8.039-13.887 0-4.856 2.161-9.208 5.575-12.144l0.021-0.018 42.68-36.495c2.778-2.384 6.418-3.836 10.396-3.836 8.84 0 16.006 7.166 16.006 16.006 0 4.861-2.167 9.216-5.588 12.152l-0.021 0.018-4.885 4.162c3.83-0.195 8.11-0.332 12.78-0.332 1.413-0.041 3.076-0.064 4.745-0.064 28.965 0 56.292 7.012 80.375 19.432l-0.983-0.461c13.657 8.024 30.080 12.764 47.611 12.764 5.565 0 11.017-0.477 16.32-1.394l-0.566 0.081c1.207 11.506 4.349 22.024 9.104 31.599l-0.242-0.537c-7.358 1.521-15.814 2.391-24.473 2.391-23.373 0-45.264-6.342-64.047-17.399l0.592 0.322zM995.43 682.068c-6.951-9.362-16.178-16.664-26.877-21.153l-0.423-0.157c13.302-4.728 22.849-16.763 23.864-31.154l0.007-0.113v-13.464h-95.999v13.464c1.021 14.504 10.569 26.539 23.621 31.189l0.249 0.078c-11.122 4.646-20.349 11.949-27.178 21.139l-0.122 0.172c-17.007-11.615-28.137-30.751-28.569-52.512l-0.001-0.065v-29.498c0-8.836 7.16-15.999 15.994-16.005h128c8.835 0.005 15.995 7.169 15.995 16.005v0 29.498c-0.431 21.824-11.557 40.961-28.337 52.433l-0.223 0.144zM977.1 720.487c0-16.189-15.311-29.313-34.198-29.313s-34.198 13.124-34.198 29.313c0 16.189 15.311 29.313 34.198 29.313s34.198-13.124 34.198-29.313zM993.456 491.427c-8.022-9.717-18.704-16.973-30.93-20.674l-0.454-0.118c16.187-3.14 28.472-16.517 29.918-33.003l0.010-0.14v-13.493h-95.999v13.493c1.456 16.626 13.741 30.003 29.696 33.105l0.233 0.037c-12.68 3.82-23.362 11.076-31.297 20.684l-0.087 0.109c-18.099-11.509-30.055-31.274-30.543-53.864l-0.001-0.071v-29.498c0-8.836 7.16-15.999 15.994-16.005h128c8.835 0.005 15.995 7.169 15.995 16.005v0 29.498c-0.486 22.66-12.439 42.424-30.27 53.778l-0.264 0.157zM977.1 529.954c0-18.887-15.311-34.198-34.198-34.198s-34.198 15.311-34.198 34.198c0 18.887 15.311 34.198 34.198 34.198s34.198-15.311 34.198-34.198zM995.43 290.077c-6.951-9.362-16.178-16.664-26.877-21.153l-0.423-0.157c13.302-4.728 22.849-16.763 23.864-31.154l0.007-0.113v-13.464h-95.999v13.464c1.021 14.504 10.569 26.539 23.621 31.189l0.249 0.078c-11.122 4.646-20.349 11.949-27.178 21.139l-0.122 0.172c-17.007-11.615-28.137-30.751-28.569-52.512l-0.001-0.065v-29.498c0-8.836 7.16-15.999 15.994-16.005h128c8.835 0.005 15.995 7.169 15.995 16.005v0 29.498c-0.431 21.824-11.557 40.961-28.337 52.433l-0.223 0.144zM977.1 329.65c0-16.189-15.311-29.313-34.198-29.313s-34.198 13.124-34.198 29.313c0 16.189 15.311 29.313 34.198 29.313s34.198-13.124 34.198-29.313z" />
<glyph unicode="&#xe934;" glyph-name="seo" d="M804.765 862.403c-62.874 0-113.845-50.971-113.845-113.845s50.971-113.845 113.845-113.845c62.874 0 113.845 50.971 113.845 113.845v0c-0.079 62.843-51.003 113.766-113.838 113.845h-0.007zM804.765 667.242c-44.91 0-81.316 36.407-81.316 81.316s36.407 81.316 81.316 81.316c44.91 0 81.316-36.407 81.316-81.316v0c-0.053-44.888-36.428-81.264-81.311-81.316h-0.005zM804.765 797.345c-26.945 0-48.788-21.843-48.788-48.788s21.843-48.788 48.788-48.788c26.945 0 48.788 21.843 48.788 48.788v0c-0.040 26.929-21.859 48.748-48.784 48.788h-0.004zM804.765 732.287c-8.96 0-16.224 7.263-16.224 16.224s7.263 16.224 16.224 16.224c8.96 0 16.224-7.263 16.224-16.224v0c0-8.96-7.263-16.224-16.224-16.224v0zM1015.27 797.345h-16.224c-17.397 0.273-31.395 14.44-31.395 31.876 0 8.96 3.697 17.057 9.648 22.849l11.503 11.503-57.548 57.502-12.145 10.835-11.496-11.496c-5.73-5.561-13.557-8.989-22.184-8.989-17.6 0-31.868 14.268-31.868 31.868 0 0.166 0.001 0.331 0.004 0.496v-0.025 16.224h-81.328l-16.224-0.927v-16.224c-0.287-17.392-14.454-31.38-31.887-31.38-8.983 0-17.098 3.714-22.895 9.69l-0.008 0.008-11.496 11.38-37.57-37.605h-530.473c-26.929-0.040-48.748-21.859-48.788-48.784v-387.673c-40.331-43.339-65.085-101.648-65.085-165.738 0-134.518 109.048-243.567 243.567-243.567 61.748 0 118.129 22.977 161.059 60.848l-0.265-0.229 2.318-2.318v-81.316l90.135-90.135 20.859 83.437 83.437 20.859-90.135 90.135h-81.351l-2.318 2.318c12.011 13.595 22.702 28.851 31.576 45.236l0.64 1.291h435.019c26.929 0.040 48.748 21.859 48.788 48.784v367.845l26.121 26.121 10.847 12.145-11.496 11.496c-5.606 5.674-9.068 13.475-9.068 22.085 0 4.589 0.984 8.948 2.752 12.879l-0.080-0.199c4.781 11.399 15.849 19.26 28.752 19.26 0.012 0 0.023 0 0.035 0h17.183v81.374zM505.285 98.005l39.98-39.98-28.253-7.080-47.049 47.049zM446.96 75.013l47.049-47.049-7.080-28.253-39.98 39.98zM105.425 846.144c0 8.96 7.263 16.224 16.224 16.224v0h500.285l10.974-10.997c5.568-5.731 8.999-13.562 8.999-22.195 0-17.6-14.268-31.868-31.868-31.868-0.153 0-0.306 0.001-0.459 0.003h-16.201v-32.529h-487.955zM412.171 155.75l-22.992 22.992c25.758 30.777 41.4 70.789 41.4 114.453 0 98.805-80.097 178.902-178.902 178.902s-178.902-80.097-178.902-178.902c0-98.805 80.097-178.902 178.902-178.902 43.696 0 83.734 15.666 114.802 41.686l-0.28-0.228 22.992-22.992c-36.919-31.815-85.342-51.19-138.292-51.19-117.302 0-212.393 95.092-212.393 212.393s95.092 212.393 212.393 212.393c117.302 0 212.393-95.092 212.393-212.393 0-52.911-19.348-101.304-51.355-138.489l0.234 0.278zM251.799 407.023c-0.078 0-0.17 0-0.262 0-62.874 0-113.845-50.971-113.845-113.845s50.971-113.845 113.845-113.845c25.759 0 49.52 8.555 68.596 22.979l-0.286-0.207 23.177-23.177c-24.869-20.013-56.835-32.123-91.63-32.123-81.045 0-146.745 65.7-146.745 146.745s65.7 146.745 146.745 146.745c81.045 0 146.745-65.7 146.745-146.745 0-34.795-12.11-66.761-32.345-91.914l0.221 0.284-23.177 23.177c14.287 18.787 22.888 42.575 22.888 68.373 0 62.721-50.846 113.567-113.567 113.567-0.131 0-0.261 0-0.392-0.001h0.020zM296.576 225.397c-12.668-8.495-28.259-13.559-45.032-13.559-45.044 0-81.56 36.516-81.56 81.56s36.516 81.56 81.56 81.56c45.044 0 81.56-36.516 81.56-81.56 0-16.759-5.055-32.337-13.723-45.293l0.186 0.296-56.274 56.274-22.992-23.003zM170.482 522.895v144.346h162.633v-144.346c-24.195 9.015-52.149 14.232-81.322 14.232s-57.127-5.217-82.981-14.769l1.659 0.537zM918.61 228.119c0-8.96-7.263-16.224-16.224-16.224v0h-420.858c9.013 24.37 14.228 52.517 14.228 81.883 0 92.882-52.168 173.579-128.803 214.388l-1.31 0.637v190.966h-227.69v-191.001c-12.447-6.697-23.087-13.61-33.11-21.287l0.582 0.428v244.389h487.874v-16.224l0.927-16.224h16.224c17.397-0.273 31.395-14.44 31.395-31.876 0-8.96-3.697-17.057-9.648-22.849l-11.503-11.503 57.49-57.49 12.168-10.847 11.519 11.496c5.727 5.557 13.55 8.981 22.172 8.981 17.594 0 31.856-14.263 31.856-31.856 0-0.151-0.001-0.302-0.003-0.452v0.023-16.224h81.316l16.224 0.927v16.224c0.265 17.403 14.435 31.41 31.876 31.41 9.007 0 17.141-3.736 22.94-9.741l0.009-0.009 10.348-10.36zM983.667 730.445c-28.136-7.366-48.558-32.561-48.558-62.526 0-12.164 3.365-23.541 9.215-33.253l-0.162 0.291-25.727-25.715c-9.389 5.697-20.738 9.069-32.875 9.069-9.099 0-17.755-1.896-25.597-5.313l0.413 0.161c-18.58-7.781-32.433-23.643-37.304-43.067l-0.093-0.436h-36.4c-7.373 28.139-32.575 48.561-62.545 48.561-12.16 0-23.535-3.362-33.246-9.207l0.291 0.163-25.715 25.692c5.696 9.39 9.068 20.739 9.068 32.876 0 9.099-1.895 17.755-5.312 25.596l0.161-0.414c-7.781 18.58-23.643 32.433-43.067 37.304l-0.436 0.093v36.365c28.136 7.366 48.558 32.561 48.558 62.526 0 12.164-3.365 23.541-9.215 33.253l0.162-0.291 25.715 25.715c9.386-5.703 20.733-9.079 32.869-9.079 9.102 0 17.761 1.899 25.602 5.323l-0.413-0.161c18.58 7.781 32.433 23.643 37.304 43.067l0.093 0.436h36.4c5.134-20.008 19.199-35.948 37.586-43.556l0.424-0.156c7.267-3.148 15.73-4.979 24.62-4.979 12.146 0 23.493 3.417 33.134 9.342l-0.275-0.157 25.715-25.715c-5.696-9.39-9.068-20.739-9.068-32.876 0-9.099 1.895-17.755 5.312-25.596l-0.161 0.414c7.767-18.572 23.606-32.426 43.008-37.315l0.437-0.093v-36.353zM135.311 827.881h34.765v-34.765h-34.765zM204.842 827.881h34.765v-34.765h-34.765zM262.785 827.881h34.765v-34.765h-34.765zM401.846 665.642h197.004v-34.765h-197.004zM401.846 607.7h197.004v-34.765h-197.004zM564.084 538.169h34.765v-34.765h-34.765zM494.554 538.169h34.765v-34.765h-34.765zM425.023 538.169h34.765v-34.765h-34.765zM788.507 276.907h-32.529v162.633h-97.574v-162.633h-32.529v97.574h-97.586v-130.104h357.805v260.219h-97.586zM593.345 276.907h-32.529v65.046h32.529zM723.46 276.907h-32.529v130.104h32.529zM821.047 472.069h32.529v-195.161h-32.54z" />
</font>
</defs>
</svg>
